<svg xmlns="http://www.w3.org/2000/svg" width="192" height="192" viewBox="0 0 192 192">
  <g fill="#f6f0d9" opacity=".075">
    <circle cx="12" cy="24" r="1.4"/><circle cx="45" cy="14" r=".9"/><circle cx="82" cy="33" r="1.2"/>
    <circle cx="126" cy="19" r="1"/><circle cx="174" cy="39" r="1.5"/><circle cx="28" cy="74" r="1.1"/>
    <circle cx="67" cy="91" r="1.6"/><circle cx="111" cy="66" r=".8"/><circle cx="153" cy="88" r="1.2"/>
    <circle cx="185" cy="103" r=".9"/><circle cx="17" cy="136" r="1.3"/><circle cx="54" cy="164" r=".8"/>
    <circle cx="101" cy="145" r="1.5"/><circle cx="141" cy="176" r="1.1"/><circle cx="177" cy="151" r="1.4"/>
  </g>
  <g fill="none" stroke="#f6f0d9" stroke-linecap="round" opacity=".045">
    <path d="M8 51c21-5 37 4 58-2"/><path d="M104 47c18 4 39 1 72 8"/>
    <path d="M23 112c29 3 51-5 79 0"/><path d="M118 124c19-6 41-3 65-8"/>
    <path d="M4 181c24-8 48-6 71-1"/><path d="M96 8c25 2 48-3 86-1"/>
  </g>
</svg>
