<svg xmlns="http://www.w3.org/2000/svg" width="1144" height="1375" viewBox="0 0 765 920" role="img" aria-label="Boonk TeePrep line art trace">
<title>Boonk TeePrep line art trace</title>
<desc>TeePrep-style threshold contour trace generated from transparent official Boonk source. Editable path starter.</desc>
<g id="boonk-sticker-silhouette" fill="#fffdf3" stroke="#0a1024" stroke-width="5" stroke-linejoin="round">
  <path d="M 220.7 389.6 Q 221.5 3.0 229.3 4.4 Q 235.0 5.5 237.6 10.4 Q 239.5 14.0 238.3 19.8 Q 237.5 24.0 228.3 39.0 Q 221.5 50.0 221.5 63.3 Q 221.5 73.0 228.7 82.0 Q 234.0 88.5 246.7 94.3 Q 256.0 98.5 260.9 98.2 Q 264.5 98.0 263.9 94.5 Q 263.5 92.0 267.3 85.9 Q 270.0 81.5 273.5 80.9 Q 276.0 80.5 284.1 83.4 Q 290.0 85.5 309.1 75.1 Q 323.0 67.5 335.7 65.2 Q 345.0 63.5 348.2 56.9 Q 350.5 52.0 356.6 48.2 Q 361.0 45.5 373.7 44.3 Q 383.0 43.5 389.1 46.1 Q 393.5 48.0 394.9 56.4 Q 396.0 62.5 412.2 67.7 Q 424.0 71.5 440.2 85.4 Q 452.0 95.5 460.7 94.9 Q 467.0 94.5 471.3 98.8 Q 474.5 102.0 473.3 108.9 Q 472.5 114.0 481.5 115.4 Q 488.0 116.5 499.6 111.9 Q 508.0 108.5 511.8 104.7 Q 514.5 102.0 518.0 93.9 Q 520.5 88.0 519.3 71.8 Q 518.5 60.0 512.1 47.9 Q 507.5 39.0 509.2 31.5 Q 510.5 26.0 514.8 23.4 Q 518.0 21.5 522.6 21.5 Q 526.0 21.5 534.1 25.0 Q 540.0 27.5 549.0 35.3 Q 555.5 41.0 561.3 48.5 Q 565.5 54.0 572.4 71.3 Q 577.5 84.0 577.5 111.7 Q 577.5 132.0 572.9 143.6 Q 569.5 152.0 557.1 166.7 Q 548.0 177.5 539.9 183.3 Q 534.0 187.5 521.6 192.4 Q 512.5 196.0 522.0 199.2 Q 529.0 201.5 531.0 204.7 Q 532.5 207.0 532.5 212.2 Q 532.5 216.0 523.0 227.3 Q 516.0 235.5 505.9 241.6 Q 498.5 246.0 506.6 256.4 Q 512.5 264.0 514.8 272.7 Q 516.5 279.0 515.3 288.8 Q 514.5 296.0 510.5 302.9 Q 507.5 308.0 512.1 313.2 Q 515.5 317.0 514.9 322.8 Q 514.5 327.0 510.5 332.8 Q 507.5 337.0 513.9 343.9 Q 518.5 349.0 516.2 359.4 Q 514.5 367.0 520.3 374.5 Q 524.5 380.0 524.5 385.8 Q 524.5 390.0 519.9 400.4 Q 516.5 408.0 520.0 415.5 Q 522.5 421.0 533.5 428.5 Q 541.5 434.0 545.3 442.4 Q 548.0 448.5 558.4 439.8 Q 566.0 433.5 577.0 428.3 Q 585.0 424.5 592.2 426.5 Q 597.5 428.0 598.1 438.4 Q 598.5 446.0 601.7 447.4 Q 604.0 448.5 622.5 427.1 Q 636.0 411.5 643.5 410.3 Q 649.0 409.5 653.3 414.4 Q 656.5 418.0 657.7 435.3 Q 658.5 448.0 658.5 457.2 Q 658.5 464.0 653.3 470.4 Q 649.5 475.0 650.7 481.4 Q 651.5 486.0 658.7 484.0 Q 664.0 482.5 676.7 468.1 Q 686.0 457.5 692.9 458.7 Q 698.0 459.5 700.6 462.7 Q 702.5 465.0 706.0 481.2 Q 708.5 493.0 708.5 513.8 Q 708.5 529.0 705.0 545.8 Q 702.5 558.0 694.4 577.1 Q 688.5 591.0 679.3 604.9 Q 672.5 615.0 658.3 629.2 Q 648.0 639.5 633.5 648.2 Q 623.0 654.5 610.9 655.7 Q 602.0 656.5 598.2 650.4 Q 595.5 646.0 601.3 630.4 Q 605.5 619.0 605.5 616.7 Q 605.5 615.0 603.5 614.1 Q 602.0 613.5 590.2 629.4 Q 581.5 641.0 572.3 647.4 Q 565.5 652.0 529.1 727.1 Q 502.5 782.0 501.3 794.1 Q 500.5 803.0 495.9 809.4 Q 492.5 814.0 489.0 823.8 Q 486.5 831.0 487.7 835.0 Q 488.5 838.0 496.6 847.2 Q 502.5 854.0 506.0 865.0 Q 508.5 873.0 507.3 882.8 Q 506.5 890.0 501.6 896.1 Q 498.0 900.5 480.7 906.3 Q 468.0 910.5 446.6 908.2 Q 431.0 906.5 418.9 900.7 Q 410.0 896.5 398.4 883.8 Q 390.0 874.5 379.6 872.2 Q 372.0 870.5 363.0 863.3 Q 356.5 858.0 355.3 844.1 Q 354.5 834.0 356.8 817.2 Q 358.5 805.0 356.8 789.4 Q 355.5 778.0 357.8 772.8 Q 359.5 769.0 357.8 758.0 Q 356.5 750.0 350.7 744.8 Q 346.5 741.0 346.5 730.0 Q 346.5 722.0 348.8 712.8 Q 350.5 706.0 359.7 699.1 Q 366.5 694.0 372.9 679.0 Q 377.5 668.0 376.1 661.4 Q 375.0 656.5 364.6 654.2 Q 357.0 652.5 338.2 678.8 Q 324.5 698.0 322.2 704.4 Q 320.5 709.0 319.9 712.5 Q 319.5 715.0 323.5 722.5 Q 326.5 728.0 325.9 737.8 Q 325.5 745.0 319.1 756.0 Q 314.5 764.0 309.9 766.9 Q 306.5 769.0 303.0 776.5 Q 300.5 782.0 301.7 788.4 Q 302.5 793.0 297.3 808.6 Q 293.5 820.0 292.9 846.6 Q 292.5 866.0 284.7 873.2 Q 279.0 878.5 271.5 880.8 Q 266.0 882.5 261.1 891.5 Q 257.5 898.0 251.4 904.1 Q 247.0 908.5 231.1 914.6 Q 219.5 919.0 220.7 389.6 Z" data-area="276333.8" data-index="0"/>
  <path d="M 232.9 387.8 Q 232.5 0.0 237.7 5.8 Q 241.5 10.0 241.5 18.1 Q 241.5 24.0 233.4 35.6 Q 227.5 44.0 225.2 50.9 Q 223.5 56.0 223.5 64.1 Q 223.5 70.0 231.9 80.1 Q 238.0 87.5 249.6 92.1 Q 258.0 95.5 260.0 94.6 Q 261.5 94.0 263.2 87.1 Q 264.5 82.0 268.8 79.4 Q 272.0 77.5 283.6 79.8 Q 292.0 81.5 305.3 73.4 Q 315.0 67.5 330.6 64.0 Q 342.0 61.5 344.6 56.0 Q 346.5 52.0 353.7 47.1 Q 359.0 43.5 372.9 41.8 Q 383.0 40.5 390.8 44.8 Q 396.5 48.0 398.5 54.6 Q 400.0 59.5 415.6 65.3 Q 427.0 69.5 442.6 82.8 Q 454.0 92.5 462.1 91.9 Q 468.0 91.5 471.5 93.8 Q 474.0 95.5 475.7 104.7 Q 477.0 111.5 486.8 112.1 Q 494.0 112.5 502.4 107.6 Q 508.5 104.0 513.1 95.3 Q 516.5 89.0 516.5 74.5 Q 516.5 64.0 509.0 47.8 Q 503.5 36.0 505.2 30.2 Q 506.5 26.0 511.4 22.2 Q 515.0 19.5 524.2 19.5 Q 531.0 19.5 539.7 24.1 Q 546.0 27.5 553.8 34.7 Q 559.5 40.0 566.4 50.4 Q 571.5 58.0 577.3 75.3 Q 581.5 88.0 582.7 100.7 Q 583.5 110.0 581.2 126.2 Q 579.5 138.0 567.9 157.1 Q 559.5 171.0 540.4 184.9 Q 526.5 195.0 532.3 202.5 Q 536.5 208.0 535.3 214.4 Q 534.5 219.0 526.7 228.5 Q 521.0 235.5 511.5 241.6 Q 504.5 246.0 512.6 261.0 Q 518.5 272.0 518.5 283.6 Q 518.5 292.0 515.0 300.1 Q 512.5 306.0 514.8 308.9 Q 516.5 311.0 517.7 317.9 Q 518.5 323.0 515.0 331.1 Q 512.5 337.0 517.1 341.6 Q 520.5 345.0 519.3 357.7 Q 518.5 367.0 524.3 374.5 Q 528.5 380.0 523.9 396.8 Q 520.5 409.0 524.0 415.9 Q 526.5 421.0 534.3 424.8 Q 540.0 427.5 545.2 436.2 Q 549.0 442.5 561.1 433.8 Q 570.0 427.5 581.6 424.0 Q 590.0 421.5 596.1 425.3 Q 600.5 428.0 601.9 437.0 Q 603.0 443.5 620.9 423.8 Q 634.0 409.5 643.2 408.3 Q 650.0 407.5 654.9 411.8 Q 658.5 415.0 659.7 423.7 Q 660.5 430.0 660.5 451.4 Q 660.5 467.0 657.0 471.6 Q 654.5 475.0 654.5 479.0 Q 654.5 482.0 660.0 480.0 Q 664.0 478.5 675.6 465.2 Q 684.0 455.5 692.1 455.5 Q 698.0 455.5 702.9 462.7 Q 706.5 468.0 710.0 489.4 Q 712.5 505.0 711.9 519.5 Q 711.5 530.0 706.3 552.5 Q 702.5 569.0 690.9 591.0 Q 682.5 607.0 673.3 618.6 Q 666.5 627.0 645.4 642.9 Q 630.0 654.5 621.9 658.0 Q 616.0 660.5 609.1 660.5 Q 604.0 660.5 597.9 655.0 Q 593.5 651.0 593.5 643.5 Q 593.5 638.0 598.1 628.8 Q 601.5 622.0 600.6 620.6 Q 600.0 619.5 596.2 627.3 Q 593.5 633.0 577.3 647.5 Q 565.5 658.0 530.2 731.4 Q 504.5 785.0 504.5 794.2 Q 504.5 801.0 496.4 817.2 Q 490.5 829.0 490.5 832.5 Q 490.5 835.0 498.6 844.2 Q 504.5 851.0 508.0 860.2 Q 510.5 867.0 510.5 878.0 Q 510.5 886.0 505.6 895.0 Q 502.0 901.5 498.0 904.4 Q 495.0 906.5 480.6 910.5 Q 470.0 913.5 448.0 911.8 Q 432.0 910.5 417.6 903.6 Q 407.0 898.5 396.0 886.9 Q 388.0 878.5 374.7 873.9 Q 365.0 870.5 358.9 864.4 Q 354.5 860.0 352.2 845.5 Q 350.5 835.0 353.4 820.0 Q 355.5 809.0 353.8 802.1 Q 352.5 797.0 354.2 779.1 Q 355.5 766.0 353.8 757.9 Q 352.5 752.0 346.7 745.1 Q 342.5 740.0 343.7 723.8 Q 344.5 712.0 350.3 703.3 Q 354.5 697.0 359.1 694.1 Q 362.5 692.0 368.9 678.7 Q 373.5 669.0 372.1 662.9 Q 371.0 658.5 363.5 657.9 Q 358.0 657.5 338.6 686.1 Q 324.5 707.0 323.9 711.6 Q 323.5 715.0 326.4 720.2 Q 328.5 724.0 328.5 736.7 Q 328.5 746.0 322.7 757.0 Q 318.5 765.0 313.9 768.5 Q 310.5 771.0 307.0 776.8 Q 304.5 781.0 304.5 790.8 Q 304.5 798.0 300.5 810.7 Q 297.5 820.0 298.1 839.7 Q 298.5 854.0 296.2 862.1 Q 294.5 868.0 289.6 874.1 Q 286.0 878.5 276.2 883.1 Q 269.0 886.5 259.8 899.2 Q 253.0 908.5 241.7 914.6 Q 233.5 919.0 232.9 387.8 Z" data-area="273665.3" data-index="1"/>
  <path d="M 221.3 12.2 Q 221.5 12.0 224.7 11.7 Q 227.0 11.5 229.0 14.1 Q 230.5 16.0 220.7 32.2 Q 213.5 44.0 213.5 64.2 Q 213.5 79.0 221.9 89.1 Q 228.0 96.5 248.2 104.0 Q 263.0 109.5 274.3 108.6 Q 282.5 108.0 278.5 104.0 Q 275.5 101.0 275.2 94.4 Q 275.0 89.5 279.0 92.4 Q 282.0 94.5 288.9 94.5 Q 294.0 94.5 314.2 83.5 Q 329.0 75.5 345.2 74.9 Q 357.0 74.5 355.6 71.3 Q 354.5 69.0 355.7 63.8 Q 356.5 60.0 362.6 56.2 Q 367.0 53.5 373.4 52.9 Q 378.0 52.5 382.0 53.1 Q 385.0 53.5 386.4 55.5 Q 387.5 57.0 381.7 59.9 Q 377.5 62.0 377.2 70.4 Q 377.0 76.5 381.0 73.6 Q 384.0 71.5 392.1 71.5 Q 398.0 71.5 410.1 76.1 Q 419.0 79.5 435.8 94.0 Q 448.0 104.5 453.2 105.7 Q 457.0 106.5 461.0 104.8 Q 464.0 103.5 464.3 107.3 Q 464.5 110.0 457.6 115.2 Q 452.5 119.0 454.5 122.2 Q 456.0 124.5 479.7 124.5 Q 497.0 124.5 506.8 119.9 Q 514.0 116.5 520.1 109.3 Q 524.5 104.0 526.8 98.2 Q 528.5 94.0 528.5 74.9 Q 528.5 61.0 521.6 45.4 Q 516.5 34.0 520.3 32.0 Q 523.0 30.5 531.7 34.5 Q 538.0 37.5 548.1 48.2 Q 555.5 56.0 562.4 71.0 Q 567.5 82.0 569.2 92.4 Q 570.5 100.0 569.9 114.5 Q 569.5 125.0 563.7 139.4 Q 559.5 150.0 550.5 160.7 Q 544.0 168.5 533.6 175.4 Q 526.0 180.5 506.6 187.1 Q 492.5 192.0 501.5 199.8 Q 508.0 205.5 516.1 206.7 Q 522.0 207.5 522.9 210.7 Q 523.5 213.0 513.4 223.1 Q 506.0 230.5 491.3 236.6 Q 480.5 241.0 490.9 252.0 Q 498.5 260.0 503.1 268.7 Q 506.5 275.0 506.5 284.2 Q 506.5 291.0 504.8 295.0 Q 503.5 298.0 498.0 302.9 Q 494.0 306.5 490.8 306.8 Q 488.5 307.0 489.9 313.6 Q 491.0 318.5 496.8 319.7 Q 501.0 320.5 503.9 318.8 Q 506.0 317.5 506.3 320.1 Q 506.5 322.0 501.0 328.1 Q 497.0 332.5 491.5 333.4 Q 487.5 334.0 500.2 343.8 Q 509.5 351.0 505.5 360.8 Q 502.5 368.0 510.6 377.8 Q 516.5 385.0 510.1 395.4 Q 505.5 403.0 506.1 405.9 Q 506.5 408.0 512.3 420.1 Q 516.5 429.0 526.9 435.4 Q 534.5 440.0 540.0 457.6 Q 544.0 470.5 556.7 456.1 Q 566.0 445.5 579.3 438.6 Q 589.0 433.5 590.4 434.9 Q 591.5 436.0 590.3 452.2 Q 589.5 464.0 593.0 470.9 Q 595.5 476.0 599.3 479.2 Q 602.0 481.5 604.0 474.3 Q 605.5 469.0 612.4 465.5 Q 617.5 463.0 616.3 453.8 Q 615.5 447.0 632.6 430.5 Q 645.0 418.5 647.0 426.9 Q 648.5 433.0 648.5 450.3 Q 648.5 463.0 642.1 467.6 Q 637.5 471.0 640.4 478.5 Q 642.5 484.0 639.0 489.8 Q 636.5 494.0 648.3 495.4 Q 657.0 496.5 665.7 491.9 Q 672.0 488.5 681.8 475.8 Q 689.0 466.5 692.2 469.1 Q 694.5 471.0 697.4 486.6 Q 699.5 498.0 698.9 518.8 Q 698.5 534.0 695.0 548.5 Q 692.5 559.0 680.9 582.1 Q 672.5 599.0 652.0 620.1 Q 637.0 635.5 625.4 641.9 Q 617.0 646.5 611.2 647.7 Q 607.0 648.5 606.1 645.3 Q 605.5 643.0 611.3 628.5 Q 615.5 618.0 616.7 603.0 Q 617.5 592.0 615.2 584.5 Q 613.5 579.0 608.6 572.9 Q 605.0 568.5 603.0 573.4 Q 601.5 577.0 597.2 578.4 Q 594.0 579.5 592.6 582.1 Q 591.5 584.0 594.4 590.9 Q 596.5 596.0 595.9 601.8 Q 595.5 606.0 590.9 610.6 Q 587.5 614.0 585.2 620.4 Q 583.5 625.0 580.3 626.4 Q 578.0 627.5 574.0 633.3 Q 571.0 637.5 564.4 640.1 Q 559.5 642.0 528.9 705.6 Q 506.5 752.0 496.7 773.4 Q 489.5 789.0 491.2 794.2 Q 492.5 798.0 487.3 804.9 Q 483.5 810.0 484.1 812.9 Q 484.5 815.0 482.2 819.6 Q 480.5 823.0 476.5 827.0 Q 473.5 830.0 477.5 838.1 Q 480.5 844.0 488.6 852.7 Q 494.5 859.0 496.8 865.9 Q 498.5 871.0 497.3 880.8 Q 496.5 888.0 492.2 891.8 Q 489.0 894.5 479.2 898.0 Q 472.0 900.5 452.3 899.3 Q 438.0 898.5 423.6 891.6 Q 413.0 886.5 402.6 873.8 Q 395.0 864.5 387.5 864.5 Q 382.0 864.5 371.9 857.3 Q 364.5 852.0 364.5 834.7 Q 364.5 822.0 367.4 814.5 Q 369.5 809.0 366.6 792.2 Q 364.5 780.0 367.4 777.1 Q 369.5 775.0 369.5 771.0 Q 369.5 768.0 366.6 753.0 Q 364.5 742.0 359.3 739.7 Q 355.5 738.0 354.9 732.8 Q 354.5 729.0 358.0 722.6 Q 360.5 718.0 358.8 716.3 Q 357.5 715.0 358.1 712.7 Q 358.5 711.0 367.7 705.2 Q 374.5 701.0 376.2 693.5 Q 377.5 688.0 382.1 679.9 Q 385.5 674.0 384.6 659.3 Q 384.0 648.5 365.5 644.5 Q 352.0 641.5 339.6 661.4 Q 330.5 676.0 323.0 684.7 Q 317.5 691.0 312.3 705.5 Q 308.5 716.0 313.1 722.4 Q 316.5 727.0 316.5 737.4 Q 316.5 745.0 313.0 746.7 Q 310.5 748.0 307.9 754.6 Q 306.0 759.5 302.8 759.2 Q 300.5 759.0 294.1 774.6 Q 289.5 786.0 291.2 791.8 Q 292.5 796.0 287.9 807.6 Q 284.5 816.0 284.5 842.0 Q 284.5 861.0 273.2 868.8 Q 265.0 874.5 262.1 873.3 Q 260.0 872.5 253.9 884.3 Q 249.5 893.0 243.4 898.5 Q 239.0 902.5 230.9 906.0 Q 225.0 908.5 205.3 909.7 Q 191.0 910.5 182.9 908.2 Q 177.0 906.5 168.6 900.4 Q 162.5 896.0 161.9 887.3 Q 161.5 881.0 164.4 871.8 Q 166.5 865.0 170.5 860.4 Q 173.5 857.0 174.1 851.8 Q 174.5 848.0 182.0 839.9 Q 187.5 834.0 194.4 820.7 Q 199.5 811.0 197.8 804.6 Q 196.5 800.0 199.4 789.6 Q 201.5 782.0 205.0 779.1 Q 207.5 777.0 209.8 760.2 Q 211.5 748.0 211.5 739.9 Q 211.5 734.0 208.0 732.8 Q 205.5 732.0 206.7 726.8 Q 207.5 723.0 212.1 717.8 Q 215.5 714.0 214.3 711.1 Q 213.5 709.0 214.9 707.6 Q 216.0 706.5 225.0 702.7 Q 231.5 700.0 235.0 691.3 Q 237.5 685.0 245.6 674.0 Q 251.5 666.0 252.7 656.2 Q 253.5 649.0 235.9 667.2 Q 223.0 680.5 205.9 687.1 Q 193.5 692.0 195.2 704.7 Q 196.5 714.0 193.6 723.8 Q 191.5 731.0 184.0 739.7 Q 178.5 746.0 177.1 750.9 Q 176.0 754.5 173.4 751.3 Q 171.5 749.0 171.2 744.7 Q 171.0 741.5 161.5 749.9 Q 154.5 756.0 152.2 760.6 Q 150.5 764.0 152.5 770.6 Q 154.0 775.5 160.6 776.4 Q 165.5 777.0 163.5 780.8 Q 162.0 783.5 157.4 785.8 Q 154.0 787.5 146.5 787.5 Q 141.0 787.5 130.6 782.9 Q 123.0 779.5 115.8 771.7 Q 110.5 766.0 108.8 756.2 Q 107.5 749.0 99.1 748.1 Q 93.0 747.5 87.5 742.0 Q 83.5 738.0 83.8 734.8 Q 84.0 732.5 90.4 733.7 Q 95.0 734.5 99.3 730.7 Q 102.5 728.0 106.0 715.3 L 122.5 687.0 L 107.0 695.5 Q 107.0 695.5 107.9 690.0 Q 108.5 686.0 119.2 675.9 Q 127.0 668.5 137.4 665.0 Q 145.0 662.5 157.1 663.7 Q 166.0 664.5 167.4 659.0 Q 168.5 655.0 171.7 652.4 Q 174.0 650.5 176.6 660.6 Q 178.5 668.0 184.0 671.8 Q 188.0 674.5 192.0 674.5 Q 195.0 674.5 203.1 671.0 Q 209.0 668.5 217.4 661.3 Q 223.5 656.0 230.4 646.2 Q 235.5 639.0 240.7 626.9 Q 244.5 618.0 232.7 609.6 Q 224.0 603.5 222.0 599.2 Q 220.5 596.0 246.5 553.2 Q 265.5 522.0 264.6 520.0 Q 264.0 518.5 259.4 519.1 Q 256.0 519.5 252.5 517.8 Q 250.0 516.5 246.0 510.7 Q 243.0 506.5 236.6 503.0 Q 232.0 500.5 221.0 497.0 Q 213.0 494.5 209.8 490.7 Q 207.5 488.0 207.5 482.8 Q 207.5 479.0 198.3 470.9 Q 191.5 465.0 179.9 447.7 Q 171.5 435.0 176.7 421.7 Q 180.5 412.0 194.4 391.8 Q 204.5 377.0 201.6 371.2 Q 199.5 367.0 199.5 361.2 Q 199.5 357.0 211.1 348.3 Q 219.5 342.0 214.6 341.1 Q 211.0 340.5 206.7 336.7 Q 203.5 334.0 203.8 331.4 Q 204.0 329.5 208.0 330.1 Q 211.0 330.5 213.6 327.9 Q 215.5 326.0 216.1 320.8 Q 216.5 317.0 213.3 319.0 Q 211.0 320.5 204.1 320.5 Q 199.0 320.5 193.5 315.6 Q 189.5 312.0 189.8 308.8 Q 190.0 306.5 195.8 306.5 Q 200.0 306.5 204.3 300.4 Q 207.5 296.0 207.2 293.4 Q 207.0 291.5 200.6 289.2 Q 196.0 287.5 193.4 284.3 Q 191.5 282.0 191.5 269.9 Q 191.5 261.0 196.1 253.5 Q 199.5 248.0 217.4 231.2 Q 230.5 219.0 221.5 212.4 Q 215.0 207.5 208.4 198.5 Q 203.5 192.0 215.9 188.2 Q 225.0 185.5 229.9 181.7 Q 233.5 179.0 235.2 175.0 Q 236.5 172.0 222.3 166.5 Q 212.0 162.5 194.9 148.3 Q 182.5 138.0 174.4 122.4 Q 168.5 111.0 167.3 95.4 Q 166.5 84.0 171.1 67.8 Q 174.5 56.0 182.0 44.4 Q 187.5 36.0 194.7 28.8 Q 200.0 23.5 212.1 17.1 Q 221.0 12.5 221.3 12.2 Z" data-area="272073.5" data-index="2"/>
  <path d="M 207.2 389.6 Q 221.5 3.0 209.1 7.9 Q 200.0 11.5 189.9 20.5 Q 182.5 27.0 176.7 34.5 Q 172.5 40.0 164.4 60.2 Q 158.5 75.0 158.5 95.2 Q 158.5 110.0 165.4 126.2 Q 170.5 138.0 182.9 151.0 Q 192.0 160.5 207.3 169.5 Q 218.5 176.0 207.8 179.2 Q 200.0 181.5 196.8 186.4 Q 194.5 190.0 196.2 197.5 Q 197.5 203.0 207.9 213.4 Q 215.5 221.0 202.8 232.0 Q 193.5 240.0 186.0 253.9 Q 180.5 264.0 180.5 273.8 Q 180.5 281.0 187.4 290.2 Q 192.5 297.0 185.6 300.5 Q 180.5 303.0 179.9 308.8 Q 179.5 313.0 181.2 317.0 Q 182.5 320.0 188.9 324.6 Q 193.5 328.0 193.5 331.5 Q 193.5 334.0 197.0 339.8 Q 199.5 344.0 193.7 350.4 Q 189.5 355.0 189.5 362.5 Q 189.5 368.0 191.8 372.6 Q 193.5 376.0 175.6 404.9 Q 162.5 426.0 162.5 433.5 Q 162.5 439.0 171.7 454.0 Q 178.5 465.0 189.5 475.4 Q 197.5 483.0 199.8 490.5 Q 201.5 496.0 206.4 500.9 Q 210.0 504.5 223.9 509.1 Q 234.0 512.5 243.0 520.9 Q 249.5 527.0 227.5 564.6 Q 211.5 592.0 213.2 600.7 Q 214.5 607.0 224.9 616.2 Q 232.5 623.0 225.0 636.3 Q 219.5 646.0 213.4 652.1 Q 209.0 656.5 200.9 661.1 Q 195.0 664.5 192.1 664.5 Q 190.0 664.5 187.4 661.9 Q 185.5 660.0 185.5 654.2 Q 185.5 650.0 183.5 646.8 Q 182.0 644.5 175.6 642.8 Q 171.0 641.5 166.4 644.4 Q 163.0 646.5 161.3 650.0 Q 160.0 652.5 146.7 653.7 Q 137.0 654.5 123.1 661.4 Q 113.0 666.5 104.6 677.2 Q 98.5 685.0 97.3 690.2 Q 96.5 694.0 98.8 698.6 Q 100.5 702.0 97.0 713.6 Q 94.5 722.0 93.1 723.4 Q 92.0 724.5 85.1 723.9 Q 80.0 723.5 76.2 727.8 Q 73.5 731.0 75.8 740.2 Q 77.5 747.0 81.3 750.8 Q 84.0 753.5 92.4 756.7 Q 98.5 759.0 102.0 768.2 Q 104.5 775.0 108.8 779.9 Q 112.0 783.5 129.3 791.6 Q 142.0 797.5 148.4 797.5 Q 153.0 797.5 162.8 792.9 Q 170.0 789.5 172.6 785.2 Q 174.5 782.0 174.5 777.4 Q 174.5 774.0 173.1 771.4 Q 172.0 769.5 166.2 768.3 Q 162.0 767.5 161.1 765.5 Q 160.5 764.0 163.7 760.8 Q 166.0 758.5 170.6 761.4 Q 174.0 763.5 178.6 762.3 Q 182.0 761.5 191.0 748.5 Q 197.5 739.0 199.8 740.7 Q 201.5 742.0 200.3 757.0 Q 199.5 768.0 192.6 784.2 Q 187.5 796.0 188.7 804.1 Q 189.5 810.0 176.2 829.1 Q 166.5 843.0 158.4 862.7 Q 152.5 877.0 152.5 888.0 Q 152.5 896.0 154.8 900.6 Q 156.5 904.0 167.2 911.2 Q 175.0 916.5 182.2 917.9 Q 187.5 919.0 207.2 389.6 Z" data-area="25608.0" data-index="3"/>
  <path d="M 199.8 388.4 Q 217.5 1.0 208.0 4.8 Q 201.0 7.5 189.2 17.0 Q 180.5 24.0 170.1 40.2 Q 162.5 52.0 157.9 67.0 Q 154.5 78.0 155.1 97.1 Q 155.5 111.0 161.9 126.6 Q 166.5 138.0 177.8 151.0 Q 186.0 160.5 199.6 168.9 Q 209.5 175.0 200.3 180.2 Q 193.5 184.0 192.3 192.7 Q 191.5 199.0 202.5 211.7 Q 210.5 221.0 198.4 232.0 Q 189.5 240.0 183.1 251.6 Q 178.5 260.0 177.3 270.4 Q 176.5 278.0 181.1 288.4 Q 184.5 296.0 179.9 301.2 Q 176.5 305.0 176.5 311.4 Q 176.5 316.0 184.0 323.5 Q 189.5 329.0 191.8 338.2 Q 193.5 345.0 189.5 350.8 Q 186.5 355.0 186.5 363.1 Q 186.5 369.0 188.2 372.5 Q 189.5 375.0 172.7 402.2 Q 160.5 422.0 159.9 431.2 Q 159.5 438.0 167.6 453.0 Q 173.5 464.0 185.6 476.1 Q 194.5 485.0 198.5 494.2 Q 201.5 501.0 206.4 505.3 Q 210.0 508.5 220.4 510.8 Q 228.0 512.5 238.1 522.0 Q 245.5 529.0 224.1 565.4 Q 208.5 592.0 209.1 600.1 Q 209.5 606.0 220.5 616.4 Q 228.5 624.0 223.3 633.8 Q 219.5 641.0 207.1 652.3 Q 198.0 660.5 193.1 660.2 Q 189.5 660.0 186.9 650.5 Q 185.0 643.5 181.5 641.2 Q 179.0 639.5 173.2 639.5 Q 169.0 639.5 161.5 645.9 Q 156.0 650.5 142.1 651.7 Q 132.0 652.5 121.0 658.3 Q 113.0 662.5 106.9 668.6 Q 102.5 673.0 97.9 681.1 Q 94.5 687.0 95.7 696.8 Q 96.5 704.0 93.6 713.2 Q 91.5 720.0 82.5 721.4 Q 76.0 722.5 72.8 727.4 Q 70.5 731.0 72.2 740.2 Q 73.5 747.0 80.1 753.1 Q 85.0 757.5 91.6 760.1 Q 96.5 762.0 97.7 767.2 Q 98.5 771.0 105.7 780.5 Q 111.0 787.5 128.9 795.0 Q 142.0 800.5 151.2 799.9 Q 158.0 799.5 164.9 796.0 Q 170.0 793.5 174.3 786.3 Q 177.5 781.0 176.3 773.5 Q 175.5 768.0 181.0 765.4 L 197.5 746.0 L 195.5 771.0 Q 195.5 771.0 189.7 781.4 Q 185.5 789.0 184.3 804.0 Q 183.5 815.0 173.7 827.7 Q 166.5 837.0 159.6 850.3 Q 154.5 860.0 151.0 872.7 Q 148.5 882.0 148.5 888.9 Q 148.5 894.0 152.0 900.9 Q 154.5 906.0 161.7 912.1 Q 167.0 916.5 171.9 917.9 Q 175.5 919.0 199.8 388.4 Z" data-area="22978.0" data-index="4"/>
</g>
<g id="boonk-ink-linework" fill="#0a1024">
  <path d="M 221.3 13.2 Q 221.5 13.0 225.9 13.3 Q 229.0 13.5 229.3 16.1 Q 229.5 18.0 222.5 27.3 Q 217.5 34.0 214.0 43.3 Q 211.5 50.0 210.9 61.1 Q 210.5 69.0 212.3 76.0 Q 213.5 81.0 223.1 91.2 Q 230.0 98.5 249.9 105.5 Q 264.0 110.5 276.0 109.6 Q 284.5 109.0 279.2 103.7 Q 275.5 100.0 275.2 94.5 Q 275.0 90.5 278.5 92.8 Q 281.0 94.5 286.8 95.1 Q 291.0 95.5 314.4 83.8 Q 331.0 75.5 335.7 74.3 Q 339.0 73.5 350.1 74.7 Q 358.0 75.5 356.5 68.8 Q 355.5 64.0 358.7 59.6 Q 361.0 56.5 373.8 54.7 Q 383.0 53.5 385.0 55.0 Q 386.5 56.0 380.1 61.3 Q 375.5 65.0 376.4 72.3 Q 377.0 77.5 382.3 74.0 Q 386.0 71.5 402.4 75.0 Q 414.0 77.5 421.6 82.2 Q 427.0 85.5 438.7 96.6 Q 447.0 104.5 457.2 104.8 Q 464.5 105.0 463.3 109.1 Q 462.5 112.0 456.1 116.1 Q 451.5 119.0 454.7 122.8 Q 457.0 125.5 476.3 126.1 Q 490.0 126.5 502.8 121.8 Q 512.0 118.5 518.1 112.4 Q 522.5 108.0 526.0 101.0 Q 528.5 96.0 529.7 79.6 Q 530.5 68.0 527.0 56.3 Q 524.5 48.0 520.4 41.6 Q 517.5 37.0 518.1 34.1 Q 518.5 32.0 522.9 31.7 Q 526.0 31.5 535.3 37.3 Q 542.0 41.5 551.1 52.3 Q 557.5 60.0 563.3 74.0 Q 567.5 84.0 569.3 98.0 Q 570.5 108.0 568.7 121.4 Q 567.5 131.0 561.1 144.4 Q 556.5 154.0 548.6 162.5 Q 543.0 168.5 529.6 176.7 Q 520.0 182.5 506.6 186.0 Q 497.0 188.5 493.8 191.1 Q 491.5 193.0 499.4 199.7 Q 505.0 204.5 515.8 208.3 Q 523.5 211.0 515.6 220.6 Q 510.0 227.5 500.1 233.3 Q 493.0 237.5 485.1 239.5 Q 479.5 241.0 490.6 252.7 Q 498.5 261.0 503.2 270.9 Q 506.5 278.0 506.5 284.4 Q 506.5 289.0 503.6 295.4 Q 501.5 300.0 493.3 304.7 Q 487.5 308.0 490.7 315.3 Q 493.0 320.5 496.5 321.1 Q 499.0 321.5 502.5 319.2 Q 505.0 317.5 504.7 321.9 Q 504.5 325.0 499.5 329.4 Q 496.0 332.5 490.5 333.4 Q 486.5 334.0 499.3 343.9 Q 508.5 351.0 508.5 353.9 Q 508.5 356.0 504.4 362.4 Q 501.5 367.0 509.7 376.9 Q 515.5 384.0 509.1 395.1 Q 504.5 403.0 508.0 413.5 Q 510.5 421.0 517.2 429.5 Q 522.0 435.5 525.5 435.5 Q 528.0 435.5 531.8 438.7 Q 534.5 441.0 539.5 458.2 Q 543.0 470.5 557.0 455.9 Q 567.0 445.5 579.8 439.1 Q 589.0 434.5 589.3 452.9 Q 589.5 466.0 596.8 475.6 Q 602.0 482.5 604.0 475.2 Q 605.5 470.0 607.5 468.0 Q 609.0 466.5 612.5 467.1 Q 615.0 467.5 617.0 464.3 Q 618.5 462.0 616.7 453.8 Q 615.5 448.0 631.0 431.4 Q 642.0 419.5 644.3 419.5 Q 646.0 419.5 647.5 444.3 Q 648.5 462.0 642.1 466.7 Q 637.5 470.0 639.8 479.3 Q 641.5 486.0 638.0 490.7 Q 635.5 494.0 641.6 496.0 Q 646.0 497.5 656.5 495.7 Q 664.0 494.5 673.6 486.0 Q 680.5 480.0 685.5 472.7 Q 689.0 467.5 690.2 466.9 Q 691.0 466.5 693.0 470.3 Q 694.5 473.0 697.4 492.9 Q 699.5 507.0 697.7 527.4 Q 696.5 542.0 690.7 560.1 Q 686.5 573.0 677.2 589.4 Q 670.5 601.0 652.1 620.0 Q 639.0 633.5 629.1 639.3 Q 622.0 643.5 613.2 645.8 Q 607.0 647.5 606.1 645.5 Q 605.5 644.0 612.5 624.7 Q 617.5 611.0 617.5 598.2 Q 617.5 589.0 614.0 580.2 Q 611.5 574.0 607.1 570.2 Q 604.0 567.5 602.5 572.5 Q 601.5 576.0 597.1 577.5 Q 594.0 578.5 592.0 582.3 Q 590.5 585.0 593.4 590.3 Q 595.5 594.0 595.5 600.4 Q 595.5 605.0 582.7 622.5 Q 573.5 635.0 565.9 637.9 Q 560.5 640.0 540.6 680.3 Q 526.5 709.0 505.5 753.4 Q 490.5 785.0 491.7 792.0 Q 492.5 797.0 486.7 804.6 Q 482.5 810.0 481.3 817.0 Q 480.5 822.0 475.8 826.7 Q 472.5 830.0 476.0 834.1 Q 478.5 837.0 478.5 839.9 Q 478.5 842.0 487.8 852.5 Q 494.5 860.0 496.8 866.4 Q 498.5 871.0 497.3 880.9 Q 496.5 888.0 489.2 893.0 Q 484.0 896.5 474.7 898.8 Q 468.0 900.5 451.6 899.3 Q 440.0 898.5 424.8 891.5 Q 414.0 886.5 402.3 873.1 Q 394.0 863.5 388.2 864.1 Q 384.0 864.5 372.6 857.2 Q 364.5 852.0 365.1 834.5 Q 365.5 822.0 368.4 812.7 Q 370.5 806.0 368.2 803.1 Q 366.5 801.0 365.9 788.7 Q 365.5 780.0 368.4 775.9 Q 370.5 773.0 367.0 753.1 Q 364.5 739.0 359.8 739.0 Q 356.5 739.0 355.9 732.6 Q 355.5 728.0 359.0 722.2 Q 361.5 718.0 359.7 714.5 Q 358.5 712.0 368.4 705.6 Q 375.5 701.0 376.7 694.0 Q 377.5 689.0 382.8 679.1 Q 386.5 672.0 385.6 658.3 Q 385.0 648.5 365.7 643.8 Q 352.0 640.5 344.1 654.2 Q 338.5 664.0 325.7 679.8 Q 316.5 691.0 311.2 706.2 Q 307.5 717.0 312.8 723.4 Q 316.5 728.0 315.9 737.9 Q 315.5 745.0 312.0 746.2 Q 309.5 747.0 306.9 754.3 Q 305.0 759.5 302.4 758.6 Q 300.5 758.0 293.5 774.4 Q 288.5 786.0 290.8 790.7 Q 292.5 794.0 290.2 803.9 Q 288.5 811.0 285.6 813.9 Q 283.5 816.0 284.1 841.7 Q 284.5 860.0 277.8 866.1 Q 273.0 870.5 265.4 871.7 Q 260.0 872.5 255.0 882.7 Q 251.5 890.0 245.4 896.1 Q 241.0 900.5 231.1 905.2 Q 224.0 908.5 205.9 909.7 Q 193.0 910.5 183.7 908.2 Q 177.0 906.5 168.5 899.8 Q 162.5 895.0 162.5 885.7 Q 162.5 879.0 164.8 871.4 Q 166.5 866.0 170.6 860.7 Q 173.5 857.0 174.1 852.3 Q 174.5 849.0 183.3 839.1 Q 189.5 832.0 195.3 820.3 Q 199.5 812.0 198.3 803.2 Q 197.5 797.0 199.8 788.2 Q 201.5 782.0 205.0 779.1 Q 207.5 777.0 210.4 757.1 Q 212.5 743.0 212.5 737.2 Q 212.5 733.0 209.0 732.4 Q 206.5 732.0 207.1 727.9 Q 207.5 725.0 212.2 718.6 Q 215.5 714.0 214.3 711.7 Q 213.5 710.0 217.3 706.8 Q 220.0 704.5 226.7 702.5 Q 231.5 701.0 235.0 692.2 Q 237.5 686.0 245.7 674.9 Q 251.5 667.0 253.3 655.3 Q 254.5 647.0 237.3 665.4 Q 225.0 678.5 213.9 684.3 Q 206.0 688.5 198.1 690.0 Q 192.5 691.0 194.3 696.3 Q 195.5 700.0 195.5 711.1 Q 195.5 719.0 192.0 727.8 Q 189.5 734.0 184.2 739.3 Q 180.5 743.0 177.9 749.1 Q 176.0 753.5 174.0 752.0 Q 172.5 751.0 171.6 745.5 Q 171.0 741.5 163.4 747.3 Q 158.0 751.5 153.6 757.6 Q 150.5 762.0 151.7 769.6 Q 152.5 775.0 159.5 776.2 Q 164.5 777.0 160.7 782.0 Q 158.0 785.5 149.2 786.7 Q 143.0 787.5 131.9 782.8 Q 124.0 779.5 117.3 773.4 Q 112.5 769.0 109.6 756.7 Q 107.5 748.0 100.2 747.7 Q 95.0 747.5 88.3 741.4 Q 83.5 737.0 83.8 734.4 Q 84.0 732.5 91.0 733.7 Q 96.0 734.5 99.2 731.9 Q 101.5 730.0 107.9 711.9 L 124.5 686.0 L 115.0 688.5 Q 115.0 688.5 110.9 692.0 Q 108.0 694.5 108.3 690.1 Q 108.5 687.0 118.1 677.4 Q 125.0 670.5 137.8 665.8 Q 147.0 662.5 158.7 664.3 Q 167.0 665.5 167.9 660.5 Q 168.5 657.0 171.7 653.8 Q 174.0 651.5 176.6 661.1 Q 178.5 668.0 182.9 671.8 Q 186.0 674.5 192.4 674.5 Q 197.0 674.5 205.2 670.4 Q 211.0 667.5 219.5 659.6 Q 225.5 654.0 237.2 633.0 Q 245.5 618.0 234.1 610.1 Q 226.0 604.5 223.4 601.3 Q 221.5 599.0 221.5 596.1 Q 221.5 594.0 247.8 550.8 Q 266.5 520.0 259.2 519.1 Q 254.0 518.5 248.2 511.5 Q 244.0 506.5 234.1 501.2 Q 227.0 497.5 222.9 498.1 Q 220.0 498.5 214.7 495.0 Q 211.0 492.5 209.0 484.6 Q 207.5 479.0 197.0 469.1 Q 189.5 462.0 179.6 447.4 Q 172.5 437.0 172.5 431.7 Q 172.5 428.0 176.0 421.0 Q 178.5 416.0 194.3 393.2 Q 205.5 377.0 202.0 370.6 Q 199.5 366.0 199.5 360.7 Q 199.5 357.0 211.8 347.7 Q 220.5 341.0 215.5 340.7 Q 212.0 340.5 207.0 336.1 Q 203.5 333.0 204.4 331.0 Q 205.0 329.5 207.3 330.7 Q 209.0 331.5 212.8 328.9 Q 215.5 327.0 216.4 320.9 Q 217.0 316.5 212.3 318.8 Q 209.0 320.5 203.7 320.5 Q 200.0 320.5 193.9 315.0 Q 189.5 311.0 190.4 308.4 Q 191.0 306.5 192.2 307.7 Q 193.0 308.5 197.7 307.3 Q 201.0 306.5 204.8 301.0 Q 207.5 297.0 207.5 293.5 Q 207.5 291.0 202.0 289.5 Q 198.0 288.5 194.2 284.1 Q 191.5 281.0 191.5 269.9 Q 191.5 262.0 198.5 251.5 Q 203.5 244.0 219.9 229.4 Q 231.5 219.0 223.6 213.5 Q 218.0 209.5 210.7 202.2 Q 205.5 197.0 204.9 194.1 Q 204.5 192.0 217.6 187.6 Q 227.0 184.5 230.8 181.9 Q 233.5 180.0 235.8 175.3 Q 237.5 172.0 214.4 160.6 Q 198.0 152.5 186.6 140.5 Q 178.5 132.0 172.7 118.6 Q 168.5 109.0 167.9 94.4 Q 167.5 84.0 170.4 71.2 Q 172.5 62.0 178.9 50.3 Q 183.5 42.0 193.7 31.2 Q 201.0 23.5 212.7 17.7 Q 221.0 13.5 221.3 13.2 Z" data-area="269870.0" data-index="0"/>
  <path d="M 453.5 428.4 Q 453.5 428.0 458.5 427.7 Q 462.0 427.5 467.0 435.4 Q 470.5 441.0 474.0 456.2 Q 476.5 467.0 475.3 474.6 Q 474.5 480.0 482.1 487.6 Q 487.5 493.0 495.1 504.7 Q 500.5 513.0 502.3 516.5 Q 503.5 519.0 502.9 524.3 Q 502.5 528.0 511.8 541.4 Q 518.5 551.0 518.5 566.8 Q 518.5 578.0 520.8 583.8 Q 522.5 588.0 529.5 596.8 Q 534.5 603.0 534.5 609.4 Q 534.5 614.0 538.6 621.0 Q 541.5 626.0 500.0 713.6 Q 470.5 776.0 464.1 780.7 L 455.5 795.0 L 455.5 780.0 Q 455.5 780.0 452.6 775.3 Q 450.5 772.0 452.3 755.6 Q 453.5 744.0 457.0 743.4 Q 459.5 743.0 459.5 736.0 Q 459.5 731.0 457.7 728.1 Q 456.5 726.0 458.3 722.5 Q 459.5 720.0 452.5 713.0 Q 447.5 708.0 448.7 695.7 Q 449.5 687.0 457.4 668.0 Q 463.0 654.5 465.3 655.7 Q 467.0 656.5 472.3 655.3 Q 476.0 654.5 479.8 651.9 Q 482.5 650.0 485.7 643.9 Q 488.0 639.5 505.5 631.3 Q 518.0 625.5 519.5 620.5 Q 520.5 617.0 503.0 570.3 Q 490.5 537.0 492.8 531.7 Q 494.5 528.0 493.3 521.6 Q 492.5 517.0 483.2 508.8 Q 476.5 503.0 468.3 486.1 Q 462.5 474.0 463.7 471.1 Q 464.5 469.0 461.6 462.0 Q 459.5 457.0 458.3 445.3 Q 457.5 437.0 454.0 434.1 Q 451.5 432.0 452.7 430.2 Q 453.5 429.0 453.5 428.4 Z" data-area="9747.0" data-index="1"/>
  <path d="M 395.3 142.2 Q 395.5 142.0 398.1 142.9 Q 400.0 143.5 399.7 145.0 Q 399.5 146.0 403.0 148.3 Q 405.5 150.0 404.3 150.6 Q 403.5 151.0 404.7 153.3 Q 405.5 155.0 407.8 155.6 Q 409.5 156.0 408.3 157.2 Q 407.5 158.0 409.3 160.3 L 407.5 164.0 L 415.0 161.5 Q 415.0 161.5 415.9 163.0 Q 416.5 164.0 414.5 163.7 Q 413.0 163.5 411.8 166.4 Q 411.0 168.5 409.8 167.3 Q 409.0 166.5 409.3 170.9 Q 409.5 174.0 399.0 182.8 Q 391.5 189.0 394.1 189.3 Q 396.0 189.5 405.9 181.3 Q 413.0 175.5 414.5 178.7 Q 415.5 181.0 413.2 183.9 L 417.0 185.5 L 413.5 188.0 Q 413.5 188.0 414.4 188.9 Q 415.0 189.5 422.0 185.4 Q 427.0 182.5 428.5 184.5 Q 429.5 186.0 429.2 188.0 Q 429.0 189.5 417.3 191.8 Q 409.0 193.5 402.3 205.5 Q 397.5 214.0 397.8 216.0 Q 398.0 217.5 403.3 210.5 Q 407.0 205.5 407.0 206.7 Q 407.0 207.5 412.3 205.7 L 426.5 206.0 L 408.0 209.5 Q 408.0 209.5 403.0 215.6 Q 399.5 220.0 401.0 223.2 Q 402.0 225.5 403.2 223.2 Q 404.0 221.5 405.8 222.7 Q 407.0 223.5 409.3 221.2 Q 411.0 219.5 412.8 221.8 Q 414.0 223.5 416.3 216.5 Q 418.0 211.5 421.8 213.0 Q 424.5 214.0 422.7 219.3 Q 421.5 223.0 423.8 222.4 Q 425.5 222.0 425.5 226.1 Q 425.5 229.0 422.3 234.0 Q 420.0 237.5 417.7 235.2 Q 416.0 233.5 415.1 236.1 Q 414.5 238.0 418.6 239.8 Q 421.5 241.0 419.2 245.7 Q 417.5 249.0 409.3 256.0 L 405.5 262.0 L 402.0 261.5 Q 402.0 261.5 401.4 263.8 Q 401.0 265.5 391.1 271.3 Q 384.0 275.5 377.0 275.5 Q 372.0 275.5 362.1 270.8 Q 355.0 267.5 342.7 258.7 Q 334.0 252.5 329.6 245.8 Q 326.5 241.0 326.5 239.2 Q 326.5 238.0 330.6 235.7 Q 333.5 234.0 331.2 232.8 Q 329.5 232.0 332.7 230.5 Q 335.0 229.5 336.2 230.7 Q 337.0 231.5 337.9 228.9 Q 338.5 227.0 331.8 225.5 Q 327.0 224.5 326.7 218.4 Q 326.5 214.0 325.6 212.5 Q 325.0 211.5 323.5 212.4 Q 322.5 213.0 322.5 204.2 Q 322.5 198.0 324.8 189.8 Q 326.5 184.0 341.4 172.6 Q 352.0 164.5 356.7 165.1 L 371.0 177.5 L 369.5 174.0 Q 369.5 174.0 372.1 175.5 Q 374.0 176.5 373.7 173.3 Q 373.5 171.0 375.5 170.7 L 391.0 187.5 L 379.5 170.0 Q 379.5 170.0 374.8 167.1 Q 371.5 165.0 372.7 164.4 Q 373.5 164.0 372.3 159.9 Q 371.5 157.0 373.8 156.4 Q 375.5 156.0 379.3 148.1 Q 382.0 142.5 385.2 144.5 Q 387.5 146.0 387.8 148.6 Q 388.0 150.5 390.6 148.5 Q 392.5 147.0 391.9 144.7 Q 391.5 143.0 393.5 142.7 Q 395.0 142.5 395.3 142.2 Z" data-area="8965.8" data-index="2"/>
  <path d="M 219.3 16.2 Q 219.5 16.0 223.6 16.6 Q 226.5 17.0 221.2 23.4 Q 217.5 28.0 212.8 38.5 Q 209.5 46.0 208.3 50.7 Q 207.5 54.0 208.7 68.6 Q 209.5 79.0 215.3 87.8 Q 219.5 94.0 228.0 100.1 Q 234.0 104.5 250.4 110.3 Q 262.0 114.5 264.9 112.2 Q 267.0 110.5 278.4 112.0 Q 286.5 113.0 278.9 122.3 Q 273.5 129.0 270.6 141.3 Q 268.5 150.0 265.9 147.4 L 261.5 154.0 L 263.0 139.5 L 260.0 153.5 L 257.0 144.5 Q 257.0 144.5 254.1 144.5 L 249.5 149.0 L 251.5 135.0 L 261.0 114.5 L 249.5 136.0 Q 249.5 136.0 247.7 146.5 Q 246.5 154.0 247.7 163.3 Q 248.5 170.0 247.0 170.3 Q 246.0 170.5 242.8 167.9 Q 240.5 166.0 241.7 164.8 L 239.0 152.5 L 237.5 163.0 Q 237.5 163.0 239.3 165.9 Q 240.5 168.0 239.0 168.3 Q 238.0 168.5 225.7 163.8 Q 217.0 160.5 204.7 152.3 Q 196.0 146.5 185.8 133.9 Q 178.5 125.0 175.0 116.8 Q 172.5 111.0 171.3 94.1 Q 170.5 82.0 175.2 66.8 Q 178.5 56.0 192.2 38.8 Q 202.0 26.5 211.9 20.7 Q 219.0 16.5 219.3 16.2 Z" data-area="7181.3" data-index="3"/>
  <path d="M 689.3 471.2 Q 689.5 471.0 693.6 486.8 Q 696.5 498.0 696.5 513.8 Q 696.5 525.0 693.0 542.5 Q 690.5 555.0 680.0 577.2 Q 672.5 593.0 660.8 607.6 Q 652.5 618.0 639.9 628.2 Q 631.0 635.5 617.9 641.0 Q 608.5 645.0 615.5 626.9 Q 620.5 614.0 622.0 617.2 L 635.0 607.5 L 634.0 611.5 L 639.5 606.0 Q 639.5 606.0 638.3 605.4 Q 637.5 605.0 643.9 600.3 Q 648.5 597.0 647.3 596.4 Q 646.5 596.0 647.7 593.1 Q 648.5 591.0 653.2 588.7 Q 656.5 587.0 655.9 583.5 Q 655.5 581.0 657.5 581.3 Q 659.0 581.5 658.7 579.5 Q 658.5 578.0 660.8 577.4 Q 662.5 577.0 660.7 575.2 Q 659.5 574.0 660.7 573.4 Q 661.5 573.0 658.3 571.5 Q 656.0 570.5 656.3 573.7 Q 656.5 576.0 653.0 577.8 Q 650.5 579.0 651.7 579.6 Q 652.5 580.0 649.0 582.3 Q 646.5 584.0 647.1 585.8 L 645.0 589.5 L 646.0 585.5 L 633.0 601.5 Q 633.0 601.5 631.0 588.9 Q 629.5 580.0 624.8 571.2 Q 621.5 565.0 625.0 560.3 L 623.5 556.0 L 629.0 555.5 Q 629.0 555.5 632.8 548.8 Q 635.5 544.0 634.3 539.9 Q 633.5 537.0 635.8 522.4 L 661.5 511.0 L 658.5 510.0 Q 658.5 510.0 658.2 506.2 Q 658.0 503.5 656.2 504.7 L 637.5 502.0 L 656.0 502.5 Q 656.0 502.5 657.5 501.6 Q 658.5 501.0 657.0 500.1 Q 656.0 499.5 667.7 493.7 L 678.0 497.5 L 677.5 488.0 Q 677.5 488.0 684.2 478.4 Q 689.0 471.5 689.3 471.2 Z" data-area="6666.8" data-index="4"/>
  <path d="M 520.5 34.4 Q 520.5 34.0 529.6 37.8 Q 536.0 40.5 546.2 51.9 Q 553.5 60.0 559.3 72.8 Q 563.5 82.0 565.8 95.4 Q 567.5 105.0 565.2 121.4 L 558.0 144.5 L 557.5 135.0 Q 557.5 135.0 555.2 133.2 Q 553.5 132.0 555.3 140.8 Q 556.5 147.0 553.0 152.3 Q 550.5 156.0 535.6 168.0 Q 525.0 176.5 510.4 181.8 Q 500.0 185.5 498.5 185.2 L 500.0 176.5 L 496.5 185.0 L 491.5 186.0 L 497.5 180.0 Q 497.5 180.0 495.7 178.2 Q 494.5 177.0 495.7 163.6 Q 496.5 154.0 490.1 140.0 Q 485.5 130.0 496.9 127.4 Q 505.0 125.5 512.6 120.8 Q 518.0 117.5 524.1 109.6 Q 528.5 104.0 531.4 94.7 Q 533.5 88.0 532.9 73.4 Q 532.5 63.0 525.5 46.6 Q 520.5 35.0 520.5 34.4 Z" data-area="5747.0" data-index="5"/>
  <path d="M 584.3 438.2 Q 584.5 438.0 586.3 438.0 Q 587.5 438.0 586.3 447.9 Q 585.5 455.0 583.2 456.8 Q 581.5 458.0 583.8 465.6 L 581.5 474.0 L 586.0 472.5 Q 586.0 472.5 593.3 480.4 Q 598.5 486.0 597.0 487.5 Q 596.0 488.5 593.7 485.0 Q 592.0 482.5 591.1 485.1 Q 590.5 487.0 588.7 487.0 Q 587.5 487.0 590.4 489.9 L 589.5 498.0 L 594.5 494.0 Q 594.5 494.0 593.9 496.9 Q 593.5 499.0 588.5 502.2 Q 585.0 504.5 583.5 503.6 Q 582.5 503.0 586.0 498.3 Q 588.5 495.0 583.2 490.9 Q 579.5 488.0 580.7 487.4 Q 581.5 487.0 580.0 485.5 Q 579.0 484.5 577.5 486.0 Q 576.5 487.0 576.5 488.8 Q 576.5 490.0 581.2 492.9 Q 584.5 495.0 581.6 499.1 Q 579.5 502.0 581.8 504.3 Q 583.5 506.0 581.5 508.0 Q 580.0 509.5 579.4 507.7 Q 579.0 506.5 575.5 507.7 Q 573.0 508.5 566.3 505.3 Q 561.5 503.0 560.6 505.6 Q 560.0 507.5 561.8 506.9 Q 563.0 506.5 564.8 508.8 Q 566.0 510.5 567.2 509.3 Q 568.0 508.5 571.2 511.1 Q 573.5 513.0 570.9 526.7 Q 569.0 536.5 561.4 537.7 Q 556.0 538.5 554.2 540.8 Q 553.0 542.5 551.8 541.3 Q 551.0 540.5 548.1 544.0 Q 546.0 546.5 544.0 545.0 Q 542.5 544.0 544.3 543.4 Q 545.5 543.0 547.3 530.7 Q 548.5 522.0 547.3 519.1 Q 546.5 517.0 547.4 515.5 Q 548.0 514.5 548.9 516.0 Q 549.5 517.0 551.8 511.2 Q 553.5 507.0 553.2 505.5 Q 553.0 504.5 551.8 506.3 Q 551.0 507.5 549.2 506.3 Q 548.0 505.5 546.5 509.3 Q 545.5 512.0 544.3 510.8 Q 543.5 510.0 544.1 513.5 Q 544.5 516.0 542.2 517.8 Q 540.5 519.0 541.7 521.9 Q 542.5 524.0 541.6 526.6 L 539.5 525.0 L 537.5 539.0 Q 537.5 539.0 539.3 554.8 Q 540.5 566.0 538.7 566.0 Q 537.5 566.0 534.6 575.3 Q 532.5 582.0 529.0 576.2 Q 526.5 572.0 524.2 558.0 Q 522.5 548.0 523.7 533.4 Q 524.5 523.0 528.0 510.2 Q 530.5 501.0 537.5 487.0 Q 542.5 477.0 550.1 467.1 Q 555.5 460.0 561.6 453.9 Q 566.0 449.5 576.5 443.1 Q 584.0 438.5 584.3 438.2 Z" data-area="4348.3" data-index="6"/>
  <path d="M 416.3 331.2 Q 416.5 331.0 418.8 336.8 Q 420.5 341.0 422.5 337.2 Q 424.0 334.5 425.8 339.2 Q 427.0 342.5 428.8 340.7 Q 430.0 339.5 432.0 341.0 Q 433.5 342.0 432.3 342.6 Q 431.5 343.0 433.8 344.2 Q 435.5 345.0 434.3 345.6 Q 433.5 346.0 435.5 349.2 Q 437.0 351.5 439.6 350.6 L 439.0 336.5 L 443.5 342.0 Q 443.5 342.0 445.3 350.2 Q 446.5 356.0 447.4 354.0 Q 448.0 352.5 448.9 355.1 Q 449.5 357.0 448.3 367.5 Q 447.5 375.0 445.5 375.3 Q 444.0 375.5 441.4 371.7 Q 439.5 369.0 439.8 366.4 Q 440.0 364.5 435.9 367.4 Q 433.0 369.5 432.1 368.6 L 429.5 355.0 L 429.5 377.0 Q 429.5 377.0 426.3 380.8 L 422.5 378.0 L 423.5 389.0 Q 423.5 389.0 422.6 390.5 Q 422.0 391.5 421.1 390.0 L 419.5 397.0 L 421.0 394.5 Q 421.0 394.5 421.3 396.0 Q 421.5 397.0 419.2 398.8 Q 417.5 400.0 417.5 402.9 Q 417.5 405.0 418.4 404.1 Q 419.0 403.5 421.0 406.1 Q 422.5 408.0 417.5 410.0 Q 414.0 411.5 413.4 410.3 Q 413.0 409.5 412.1 411.5 Q 411.5 413.0 413.3 414.8 L 410.0 418.5 L 413.5 416.0 Q 413.5 416.0 409.7 415.7 Q 407.0 415.5 407.0 420.2 Q 407.0 423.5 401.7 420.0 Q 398.0 417.5 397.4 418.7 Q 397.0 419.5 395.8 417.2 Q 395.0 415.5 393.8 416.7 Q 393.0 417.5 391.8 415.2 Q 391.0 413.5 388.7 414.1 Q 387.0 414.5 386.7 410.1 Q 386.5 407.0 389.4 404.7 Q 391.5 403.0 391.5 393.7 Q 391.5 387.0 389.7 387.6 L 387.5 399.0 L 386.5 374.0 Q 386.5 374.0 383.9 376.0 Q 382.0 377.5 379.7 374.0 Q 378.0 371.5 375.4 373.0 Q 373.5 374.0 375.8 376.3 Q 377.5 378.0 376.0 378.9 Q 375.0 379.5 370.9 377.2 Q 368.0 375.5 367.1 377.0 L 371.0 379.5 L 363.0 378.5 Q 363.0 378.5 362.1 373.5 Q 361.5 370.0 356.2 364.7 Q 352.5 361.0 353.1 352.2 Q 353.5 346.0 351.7 344.8 Q 350.5 344.0 352.5 337.9 Q 354.0 333.5 354.6 335.3 L 360.5 336.0 L 356.5 336.0 Q 356.5 336.0 358.0 339.8 Q 359.0 342.5 359.6 340.2 Q 360.0 338.5 362.6 340.0 Q 364.5 341.0 363.3 338.7 Q 362.5 337.0 364.5 337.9 Q 366.0 338.5 365.4 336.2 Q 365.0 334.5 370.8 336.8 Q 375.0 338.5 373.8 335.6 Q 373.0 333.5 378.3 334.7 Q 382.0 335.5 387.3 341.3 Q 391.0 345.5 392.2 343.7 Q 393.0 342.5 400.3 354.5 L 407.5 377.0 L 406.0 374.5 Q 406.0 374.5 405.4 377.4 L 403.5 376.0 L 403.5 395.0 Q 403.5 395.0 405.5 395.3 L 408.0 392.5 L 408.0 397.5 L 408.5 390.0 Q 408.5 390.0 409.4 390.9 Q 410.0 391.5 410.9 389.5 L 410.5 378.0 L 412.0 381.5 Q 412.0 381.5 412.9 378.9 L 413.0 369.5 L 411.5 376.0 Q 411.5 376.0 409.7 374.8 Q 408.5 374.0 408.5 357.6 Q 408.5 346.0 410.3 345.4 L 413.5 355.0 L 411.5 338.0 Q 411.5 338.0 414.1 334.2 Q 416.0 331.5 416.3 331.2 Z" data-area="4155.3" data-index="7"/>
  <path d="M 248.3 320.2 Q 248.5 320.0 251.7 320.3 Q 254.0 320.5 261.0 325.2 Q 266.0 328.5 273.3 336.4 Q 278.5 342.0 284.0 351.6 L 296.5 357.0 L 292.5 360.0 Q 292.5 360.0 290.7 369.9 Q 289.5 377.0 283.1 388.7 Q 278.5 397.0 276.7 398.2 Q 275.5 399.0 274.9 397.2 Q 274.5 396.0 275.4 394.5 Q 276.0 393.5 277.2 394.7 Q 278.0 395.5 278.3 393.5 Q 278.5 392.0 275.9 388.2 Q 274.0 385.5 273.1 386.4 Q 272.5 387.0 271.9 383.5 Q 271.5 381.0 269.2 380.4 L 268.0 376.5 L 265.5 380.0 Q 265.5 380.0 267.8 381.2 Q 269.5 382.0 268.0 382.3 Q 267.0 382.5 259.4 376.1 Q 254.0 371.5 251.4 375.3 L 261.5 393.0 L 255.0 387.5 Q 255.0 387.5 255.3 392.5 L 263.5 396.0 L 257.5 399.0 L 259.0 401.5 L 251.5 390.0 Q 251.5 390.0 236.6 376.3 L 226.0 369.5 L 223.0 364.5 Q 223.0 364.5 218.3 362.2 Q 215.0 360.5 207.7 359.0 Q 202.5 358.0 208.6 355.4 Q 213.0 353.5 222.3 357.6 Q 229.0 360.5 231.6 357.9 Q 233.5 356.0 233.5 353.7 Q 233.5 352.0 230.6 350.2 Q 228.5 349.0 230.3 347.2 Q 231.5 346.0 228.9 345.1 Q 227.0 344.5 227.0 346.8 L 218.5 346.0 L 225.0 344.5 Q 225.0 344.5 224.1 343.0 Q 223.5 342.0 228.5 339.4 Q 232.0 337.5 241.3 327.6 Q 248.0 320.5 248.3 320.2 Z" data-area="3157.0" data-index="8"/>
  <path d="M 210.3 376.2 Q 210.5 376.0 211.1 377.8 L 206.0 387.5 L 218.0 377.5 Q 218.0 377.5 227.1 384.8 Q 233.5 390.0 237.0 395.8 Q 239.5 400.0 232.2 408.5 Q 227.0 414.5 220.0 413.3 L 207.5 415.0 L 214.0 414.5 Q 214.0 414.5 219.8 418.0 Q 224.0 420.5 225.8 419.9 Q 227.0 419.5 232.5 429.1 Q 236.5 436.0 229.2 440.4 Q 224.0 443.5 217.0 452.8 Q 212.0 459.5 211.4 456.6 Q 211.0 454.5 209.0 456.0 Q 207.5 457.0 207.2 453.2 Q 207.0 450.5 204.1 450.5 L 203.0 453.5 L 185.5 431.0 Q 185.5 431.0 189.0 420.5 Q 191.5 413.0 195.0 408.3 Q 197.5 405.0 196.0 403.0 L 175.5 435.0 L 182.5 416.0 Q 182.5 416.0 198.6 392.9 Q 210.0 376.5 210.3 376.2 Z" data-area="2631.8" data-index="9"/>
  <path d="M 351.3 513.2 Q 351.5 513.0 352.1 521.8 Q 352.5 528.0 345.5 584.6 Q 340.5 625.0 318.6 619.5 Q 303.0 615.5 294.8 612.0 Q 289.0 609.5 287.5 606.3 Q 286.5 604.0 292.6 588.5 Q 297.0 577.5 304.6 581.0 Q 310.0 583.5 319.6 585.0 Q 326.5 586.0 340.8 543.7 Q 351.0 513.5 351.3 513.2 Z" data-area="2625.5" data-index="10"/>
  <path d="M 229.3 704.2 Q 229.5 704.0 230.1 705.8 Q 230.5 707.0 228.7 707.0 Q 227.5 707.0 231.0 712.3 Q 233.5 716.0 236.7 716.3 Q 239.0 716.5 242.5 721.2 Q 245.0 724.5 248.5 723.3 Q 251.0 722.5 253.9 726.0 Q 256.0 728.5 261.8 727.9 Q 266.0 727.5 269.5 731.0 Q 272.0 733.5 276.1 731.2 Q 279.0 729.5 281.9 729.5 Q 284.0 729.5 286.3 731.8 Q 288.0 733.5 290.9 730.6 Q 293.0 728.5 300.0 728.5 Q 305.0 728.5 303.5 727.0 Q 302.5 726.0 305.7 722.8 Q 308.0 720.5 310.6 723.7 Q 312.5 726.0 309.6 726.0 Q 307.5 726.0 311.0 736.5 Q 313.5 744.0 309.4 742.8 Q 306.5 742.0 305.9 749.6 Q 305.5 755.0 302.9 755.3 Q 301.0 755.5 296.9 749.7 Q 294.0 745.5 290.5 754.8 Q 288.0 761.5 282.2 754.5 Q 278.0 749.5 275.4 754.5 Q 273.5 758.0 270.3 760.0 Q 268.0 761.5 263.3 752.2 Q 260.0 745.5 252.4 752.5 Q 247.0 757.5 244.7 748.2 Q 243.0 741.5 234.2 746.2 Q 228.0 749.5 227.7 741.6 Q 227.5 736.0 220.2 738.6 Q 215.0 740.5 216.5 733.2 Q 217.5 728.0 213.1 729.5 Q 210.0 730.5 209.7 728.5 Q 209.5 727.0 211.8 722.3 Q 213.5 719.0 218.2 715.5 Q 221.5 713.0 219.2 710.7 Q 217.5 709.0 224.2 706.4 Q 229.0 704.5 229.3 704.2 Z" data-area="2535.3" data-index="11"/>
  <path d="M 312.3 464.2 Q 312.5 464.0 319.8 464.3 L 337.5 479.0 L 335.0 477.5 Q 335.0 477.5 333.5 479.5 Q 332.5 481.0 334.3 485.1 Q 335.5 488.0 332.9 488.3 Q 331.0 488.5 324.0 481.5 Q 319.0 476.5 311.4 475.9 L 308.0 472.5 L 303.5 475.0 Q 303.5 475.0 315.2 480.8 Q 323.5 485.0 327.6 490.8 Q 330.5 495.0 328.2 496.8 Q 326.5 498.0 330.0 498.6 Q 332.5 499.0 329.6 502.5 L 330.5 511.0 L 324.0 506.5 Q 324.0 506.5 320.5 509.4 Q 318.0 511.5 313.3 509.7 L 318.0 520.5 L 304.0 503.5 Q 304.0 503.5 302.2 504.1 Q 301.0 504.5 307.7 512.4 Q 312.5 518.0 309.0 519.8 Q 306.5 521.0 308.3 523.9 Q 309.5 526.0 308.0 526.3 Q 307.0 526.5 301.7 520.1 Q 298.0 515.5 288.4 510.5 Q 281.5 507.0 281.2 500.3 Q 281.0 495.5 279.2 497.3 Q 278.0 498.5 274.5 495.0 L 268.5 496.0 L 271.5 492.0 Q 271.5 492.0 270.0 490.0 L 267.5 490.0 L 270.0 484.5 L 271.0 490.5 Q 271.0 490.5 272.8 488.2 Q 274.0 486.5 274.0 488.3 Q 274.0 489.5 276.6 489.2 Q 278.5 489.0 277.3 485.5 Q 276.5 483.0 278.0 482.1 Q 279.0 481.5 284.3 484.4 Q 288.0 486.5 290.0 482.7 L 285.5 480.0 L 298.5 472.0 Q 298.5 472.0 298.2 470.0 Q 298.0 468.5 296.2 470.8 L 279.0 476.5 L 300.0 464.5 Q 300.0 464.5 307.0 464.5 Q 312.0 464.5 312.3 464.2 Z" data-area="2174.8" data-index="12"/>
  <path d="M 364.5 501.0 L 364.5 528.0 L 366.5 520.0 L 371.5 537.0 Q 371.5 537.0 370.6 539.0 L 366.5 539.0 L 368.5 541.0 Q 368.5 541.0 367.0 543.6 L 363.5 534.0 L 363.5 561.0 Q 363.5 561.0 362.3 560.4 Q 361.5 560.0 359.7 581.0 Q 358.5 596.0 361.7 596.9 Q 364.0 597.5 364.0 596.3 Q 364.0 595.5 374.5 600.8 Q 382.0 604.5 394.8 605.7 Q 404.0 606.5 405.8 608.3 Q 407.0 609.5 407.6 608.3 Q 408.0 607.5 422.9 607.8 Q 433.5 608.0 433.2 611.2 Q 433.0 613.5 425.1 613.8 Q 419.5 614.0 418.3 627.4 Q 417.5 637.0 426.6 637.3 Q 433.0 637.5 432.4 640.4 Q 432.0 642.5 420.6 642.2 Q 412.5 642.0 413.1 626.8 Q 413.5 616.0 411.7 615.4 L 413.5 614.0 L 402.0 612.5 L 406.5 611.0 Q 406.5 611.0 403.9 609.0 Q 402.0 607.5 399.4 607.8 Q 397.5 608.0 398.4 610.0 Q 399.0 611.5 390.2 610.3 Q 384.0 609.5 382.2 607.2 Q 381.0 605.5 378.1 607.8 L 367.5 610.0 L 382.5 614.0 Q 382.5 614.0 380.7 618.7 Q 379.5 622.0 379.8 631.1 Q 380.0 637.5 361.6 634.3 Q 348.5 632.0 352.0 606.9 Q 354.5 589.0 354.5 584.3 Q 354.5 581.0 351.9 584.2 Q 350.0 586.5 349.1 581.5 L 350.0 572.5 L 352.0 579.5 Q 352.0 579.5 353.2 576.0 L 355.5 577.0 L 360.5 513.0 Q 360.5 513.0 362.8 506.6 L 364.5 501.0 Z" data-area="2125.5" data-index="13"/>
  <path d="M 365.5 709.0 L 364.5 714.0 Q 364.5 714.0 367.4 715.2 Q 369.5 716.0 369.2 719.8 Q 369.0 722.5 372.8 719.9 L 372.0 710.5 L 381.0 720.5 Q 381.0 720.5 384.5 719.9 Q 387.0 719.5 391.1 723.0 Q 394.0 725.5 398.1 724.3 Q 401.0 723.5 405.7 727.0 L 412.0 724.5 L 412.0 726.5 Q 412.0 726.5 415.5 725.3 Q 418.0 724.5 422.1 727.4 Q 425.0 729.5 427.3 726.6 Q 429.0 724.5 433.7 724.5 Q 437.0 724.5 442.5 720.1 L 446.0 714.5 L 447.5 720.0 L 439.5 723.0 L 453.0 724.5 Q 453.0 724.5 455.6 729.5 Q 457.5 733.0 457.5 737.7 Q 457.5 741.0 454.0 739.8 L 453.0 735.5 L 450.0 738.5 Q 450.0 738.5 448.8 736.7 Q 448.0 735.5 446.8 744.3 Q 446.0 750.5 439.0 745.2 Q 434.0 741.5 431.1 749.7 Q 429.0 755.5 422.0 748.5 Q 417.0 743.5 411.2 751.1 Q 407.0 756.5 403.8 754.5 Q 401.5 753.0 400.0 747.5 Q 399.0 743.5 390.8 748.8 Q 385.0 752.5 383.2 744.9 Q 382.0 739.5 374.1 743.3 L 367.5 738.0 L 369.0 741.5 Q 369.0 741.5 370.2 740.9 Q 371.0 740.5 373.0 736.1 Q 374.5 733.0 372.2 732.4 Q 370.5 732.0 370.8 730.0 Q 371.0 728.5 368.7 728.5 Q 367.0 728.5 365.0 730.5 Q 363.5 732.0 366.4 732.0 Q 368.5 732.0 366.5 733.5 Q 365.0 734.5 363.0 733.6 Q 361.5 733.0 365.0 728.9 Q 367.5 726.0 366.6 723.4 Q 366.0 721.5 364.0 722.4 Q 362.5 723.0 360.7 727.7 Q 359.5 731.0 359.5 733.3 L 362.5 735.0 L 358.5 737.0 Q 358.5 737.0 358.5 731.2 Q 358.5 727.0 363.2 721.2 Q 366.5 717.0 363.0 714.7 Q 360.5 713.0 363.1 711.0 L 365.5 709.0 Z" data-area="2092.5" data-index="14"/>
  <path d="M 402.3 432.2 Q 402.5 432.0 409.8 432.9 Q 415.0 433.5 418.5 435.8 Q 421.0 437.5 426.0 447.1 L 429.0 463.5 L 427.5 450.0 Q 427.5 450.0 425.2 448.8 Q 423.5 448.0 424.7 458.5 Q 425.5 466.0 423.2 470.7 Q 421.5 474.0 415.1 478.7 Q 410.5 482.0 412.3 483.8 L 408.0 486.5 L 410.5 485.0 Q 410.5 485.0 409.6 483.5 Q 409.0 482.5 401.4 480.7 Q 396.0 479.5 394.0 480.4 L 396.0 484.5 L 389.0 481.5 Q 389.0 481.5 384.6 473.0 L 381.5 453.0 L 380.0 457.5 L 379.5 453.0 Q 379.5 453.0 381.8 447.2 Q 383.5 443.0 387.9 438.6 Q 391.0 435.5 397.4 433.7 Q 402.0 432.5 402.3 432.2 Z" data-area="1871.8" data-index="15"/>
  <path d="M 289.5 624.0 L 294.5 626.0 L 296.0 633.5 L 298.0 628.5 Q 298.0 628.5 300.0 630.0 L 300.0 635.5 L 304.5 632.0 Q 304.5 632.0 304.2 635.8 Q 304.0 638.5 307.2 637.6 L 306.0 633.5 L 316.0 639.5 Q 316.0 639.5 316.6 641.8 Q 317.0 643.5 318.2 642.3 Q 319.0 641.5 322.8 644.7 Q 325.5 647.0 322.9 650.8 Q 321.0 653.5 321.0 651.7 Q 321.0 650.5 316.9 653.4 L 312.0 651.5 L 312.0 658.5 L 309.0 652.5 Q 309.0 652.5 306.4 655.1 Q 304.5 657.0 306.8 658.2 Q 308.5 659.0 307.0 660.5 Q 306.0 661.5 306.0 659.7 Q 306.0 658.5 304.5 659.4 Q 303.5 660.0 304.1 671.1 Q 304.5 679.0 290.2 688.1 Q 280.0 694.5 276.2 686.0 Q 273.5 680.0 272.3 671.2 Q 271.5 665.0 276.5 665.9 Q 280.0 666.5 279.7 663.3 Q 279.5 661.0 281.3 660.4 L 279.0 656.5 L 279.5 659.0 Q 279.5 659.0 276.9 659.9 Q 275.0 660.5 275.3 657.3 Q 275.5 655.0 272.6 655.6 Q 270.5 656.0 270.8 651.6 Q 271.0 648.5 274.5 652.6 Q 277.0 655.5 277.9 653.5 Q 278.5 652.0 276.2 650.8 Q 274.5 650.0 275.1 646.5 L 270.5 643.0 L 280.0 642.5 Q 280.0 642.5 282.0 640.5 L 288.0 624.5 L 287.5 629.0 Q 287.5 629.0 289.5 628.1 Q 291.0 627.5 292.2 631.0 Q 293.0 633.5 293.9 631.5 Q 294.5 630.0 291.9 626.8 L 289.5 624.0 Z" data-area="1857.0" data-index="16"/>
  <path d="M 595.3 501.2 Q 595.5 501.0 604.0 500.7 Q 610.0 500.5 619.1 507.2 Q 625.5 512.0 624.3 512.6 Q 623.5 513.0 625.8 518.3 Q 627.5 522.0 627.5 527.3 Q 627.5 531.0 626.3 532.8 L 624.0 524.5 L 621.5 535.0 Q 621.5 535.0 623.8 536.8 Q 625.5 538.0 622.3 538.3 Q 620.0 538.5 615.9 543.8 L 601.5 550.0 L 609.0 548.5 Q 609.0 548.5 614.0 544.7 Q 617.5 542.0 618.7 539.7 Q 619.5 538.0 618.3 536.8 Q 617.5 536.0 619.8 534.8 Q 621.5 534.0 621.5 525.8 Q 621.5 520.0 616.5 513.3 Q 613.0 508.5 603.1 507.3 L 585.5 516.0 L 598.0 507.5 Q 598.0 507.5 605.0 508.1 Q 610.0 508.5 615.5 514.6 Q 619.5 519.0 620.1 523.7 Q 620.5 527.0 617.6 527.0 L 619.5 530.0 L 616.0 528.5 Q 616.0 528.5 616.6 530.3 Q 617.0 531.5 611.7 531.5 Q 608.0 531.5 604.2 530.0 Q 601.5 529.0 603.5 534.5 Q 605.0 538.5 606.8 535.0 Q 608.0 532.5 610.0 532.8 Q 611.5 533.0 609.2 534.2 Q 607.5 535.0 606.0 541.7 L 600.0 538.5 L 600.5 542.0 Q 600.5 542.0 599.0 541.1 Q 598.0 540.5 594.2 544.3 L 600.0 550.5 L 590.0 547.5 Q 590.0 547.5 591.5 550.1 Q 592.5 552.0 591.0 552.9 Q 590.0 553.5 585.0 549.1 Q 581.5 546.0 579.2 541.9 Q 577.5 539.0 579.3 535.5 Q 580.5 533.0 578.5 533.9 Q 577.0 534.5 576.1 531.9 Q 575.5 530.0 576.7 523.0 Q 577.5 518.0 583.6 510.1 Q 588.0 504.5 592.1 502.7 Q 595.0 501.5 595.3 501.2 Z" data-area="1625.5" data-index="17"/>
  <path d="M 271.3 413.2 Q 271.5 413.0 273.3 415.9 Q 274.5 418.0 273.9 422.1 Q 273.5 425.0 267.7 428.5 Q 263.5 431.0 266.1 433.6 Q 268.0 435.5 272.1 436.1 Q 275.0 436.5 282.0 433.0 Q 287.0 430.5 286.7 436.0 Q 286.5 440.0 282.4 442.9 Q 279.5 445.0 281.0 446.5 Q 282.0 447.5 289.0 447.5 Q 294.0 447.5 299.3 444.0 Q 303.0 441.5 301.5 452.9 Q 300.5 461.0 294.4 465.4 Q 290.0 468.5 280.7 465.0 Q 274.0 462.5 267.9 455.8 Q 263.5 451.0 262.3 445.7 Q 261.5 442.0 257.7 438.2 Q 255.0 435.5 248.6 434.3 Q 244.0 433.5 241.4 429.7 Q 239.5 427.0 238.9 425.2 Q 238.5 424.0 244.0 418.5 Q 248.0 414.5 258.5 417.4 Q 266.0 419.5 268.9 416.0 Q 271.0 413.5 271.3 413.2 Z" data-area="1440.3" data-index="18"/>
  <path d="M 311.5 531.0 L 288.5 589.0 Q 288.5 589.0 288.5 592.5 Q 288.5 595.0 285.0 600.3 Q 282.5 604.0 281.3 611.6 Q 280.5 617.0 277.0 622.8 L 244.0 613.5 L 249.0 614.5 Q 249.0 614.5 250.5 611.3 L 240.5 602.0 L 245.0 603.5 L 247.0 600.5 L 247.0 605.5 Q 247.0 605.5 261.0 612.5 Q 271.0 617.5 272.5 614.3 Q 273.5 612.0 272.3 609.7 L 274.0 603.5 L 273.5 608.0 Q 273.5 608.0 274.7 607.4 L 282.5 586.0 L 281.0 587.5 Q 281.0 587.5 280.4 585.2 Q 280.0 583.5 278.2 584.7 Q 277.0 585.5 275.8 583.2 Q 275.0 581.5 273.8 582.7 Q 273.0 583.5 267.7 579.4 Q 264.0 576.5 266.6 575.0 Q 268.5 574.0 264.4 571.1 L 271.0 552.5 L 263.5 570.0 Q 263.5 570.0 276.1 576.1 Q 285.0 580.5 284.7 577.3 Q 284.5 575.0 286.8 574.4 Q 288.5 574.0 286.7 571.1 Q 285.5 569.0 290.2 560.2 Q 293.5 554.0 294.1 548.7 Q 294.5 545.0 297.1 541.8 Q 299.0 539.5 300.5 541.0 Q 301.5 542.0 303.5 537.0 Q 305.0 533.5 307.3 534.1 Q 309.0 534.5 310.2 532.7 L 311.5 531.0 Z" data-area="1117.0" data-index="19"/>
  <path d="M 351.3 486.2 Q 351.5 486.0 353.3 486.0 L 353.0 490.5 L 356.0 487.5 Q 356.0 487.5 356.3 489.0 Q 356.5 490.0 338.4 544.3 Q 325.5 583.0 322.3 583.3 Q 320.0 583.5 308.6 579.1 Q 300.5 576.0 303.7 571.0 Q 306.0 567.5 307.8 569.8 Q 309.0 571.5 310.8 570.3 Q 312.0 569.5 312.6 571.3 Q 313.0 572.5 317.4 573.4 Q 320.5 574.0 321.7 571.1 Q 322.5 569.0 321.3 566.7 Q 320.5 565.0 322.8 563.8 Q 324.5 563.0 323.3 560.7 Q 322.5 559.0 324.8 557.8 Q 326.5 557.0 326.5 555.2 Q 326.5 554.0 325.3 554.6 Q 324.5 555.0 325.7 548.0 Q 326.5 543.0 328.8 538.3 Q 330.5 535.0 331.4 534.1 Q 332.0 533.5 332.6 535.3 Q 333.0 536.5 333.9 535.0 Q 334.5 534.0 334.5 532.2 Q 334.5 531.0 333.3 531.6 Q 332.5 532.0 333.7 527.3 Q 334.5 524.0 336.3 524.0 Q 337.5 524.0 336.9 521.1 Q 336.5 519.0 338.8 517.8 Q 340.5 517.0 338.7 514.7 Q 337.5 513.0 340.1 508.6 Q 342.0 505.5 342.9 507.0 Q 343.5 508.0 344.1 505.1 L 342.5 503.0 L 345.5 502.0 Q 345.5 502.0 348.7 492.9 Q 351.0 486.5 351.3 486.2 Z" data-area="1022.5" data-index="20"/>
  <path d="M 216.3 789.2 Q 216.5 789.0 226.1 792.2 Q 233.0 794.5 244.7 795.7 Q 253.0 796.5 251.0 810.8 Q 249.5 821.0 232.3 818.4 Q 220.0 816.5 220.9 815.6 Q 221.5 815.0 216.8 812.1 Q 213.5 810.0 215.8 801.2 Q 217.5 795.0 216.6 793.5 L 213.5 796.0 L 216.0 789.5 Q 216.0 789.5 216.3 789.2 Z" data-area="876.0" data-index="21"/>
  <path d="M 389.3 305.2 Q 389.5 305.0 395.0 304.7 Q 399.0 304.5 405.1 308.9 Q 409.5 312.0 410.7 313.8 Q 411.5 315.0 410.3 316.2 Q 409.5 317.0 411.8 318.8 Q 413.5 320.0 411.2 327.6 Q 409.5 333.0 407.5 335.0 L 396.0 337.5 L 401.0 338.5 Q 401.0 338.5 400.4 339.7 Q 400.0 340.5 396.5 340.5 Q 394.0 340.5 391.1 338.2 Q 389.0 336.5 388.4 337.7 Q 388.0 338.5 385.4 335.9 Q 383.5 334.0 384.7 333.4 Q 385.5 333.0 383.7 332.4 Q 382.5 332.0 381.3 321.5 Q 380.5 314.0 385.5 309.0 Q 389.0 305.5 389.3 305.2 Z" data-area="873.5" data-index="22"/>
  <path d="M 225.5 826.0 L 223.5 833.0 L 231.0 836.5 L 227.5 837.0 L 246.5 855.0 L 242.0 852.5 Q 242.0 852.5 238.2 856.3 Q 235.5 859.0 237.8 860.8 L 241.0 869.5 L 229.0 854.5 Q 229.0 854.5 220.2 849.8 Q 214.0 846.5 199.4 845.3 L 177.5 850.0 L 192.0 834.5 Q 192.0 834.5 195.5 833.3 L 222.0 834.5 L 217.5 832.0 Q 217.5 832.0 222.2 829.1 L 225.5 826.0 Z" data-area="795.0" data-index="23"/>
  <path d="M 431.5 824.4 Q 431.5 824.0 434.1 826.0 L 438.0 823.5 L 438.0 825.5 L 452.0 823.5 L 448.5 825.0 L 455.5 829.0 L 449.5 829.0 Q 449.5 829.0 451.5 832.2 Q 453.0 834.5 462.1 833.6 Q 468.5 833.0 462.1 827.7 Q 457.5 824.0 459.5 823.7 Q 461.0 823.5 469.5 831.4 Q 475.5 837.0 463.5 835.5 Q 455.0 834.5 446.2 838.0 Q 440.0 840.5 430.4 849.0 L 418.0 867.5 L 425.5 849.0 Q 425.5 849.0 421.1 851.0 Q 418.0 852.5 418.9 847.0 Q 419.5 843.0 417.7 843.6 Q 416.5 844.0 416.2 847.2 Q 416.0 849.5 414.5 847.5 Q 413.5 846.0 420.5 839.0 Q 425.5 834.0 423.7 833.4 L 427.5 829.0 L 423.5 830.0 Q 423.5 830.0 424.7 827.7 Q 425.5 826.0 428.7 828.6 Q 431.0 830.5 432.5 829.0 Q 433.5 828.0 432.3 826.2 Q 431.5 825.0 431.5 824.4 Z" data-area="635.0" data-index="24"/>
  <path d="M 251.5 309.0 L 266.0 314.5 Q 266.0 314.5 266.6 313.3 Q 267.0 312.5 267.6 314.8 Q 268.0 316.5 275.6 314.2 Q 281.0 312.5 281.0 310.7 L 284.0 313.5 L 283.5 310.0 Q 283.5 310.0 285.0 310.3 Q 286.0 310.5 286.3 313.7 Q 286.5 316.0 282.4 317.8 Q 279.5 319.0 280.7 321.3 Q 281.5 323.0 278.6 323.0 Q 276.5 323.0 280.6 325.9 Q 283.5 328.0 288.8 337.3 Q 292.5 344.0 291.9 346.3 Q 291.5 348.0 293.3 350.3 Q 294.5 352.0 291.9 354.6 Q 290.0 356.5 286.8 351.5 Q 284.5 348.0 285.7 347.4 Q 286.5 347.0 283.6 345.2 Q 281.5 344.0 282.1 342.2 Q 282.5 341.0 277.2 336.9 Q 273.5 334.0 274.7 333.4 Q 275.5 333.0 272.3 331.5 Q 270.0 330.5 267.1 325.8 Q 265.0 322.5 264.4 323.7 Q 264.0 324.5 259.3 319.8 L 246.5 313.0 L 257.0 312.5 L 252.0 309.5 L 251.5 309.0 Z" data-area="593.8" data-index="25"/>
  <path d="M 461.7 127.2 Q 461.5 127.0 471.7 126.7 Q 479.0 126.5 485.7 134.4 Q 490.5 140.0 492.8 147.6 L 493.5 174.0 L 493.5 160.0 Q 493.5 160.0 489.7 159.7 Q 487.0 159.5 485.5 162.1 L 483.0 148.5 L 483.5 164.0 L 482.5 159.0 Q 482.5 159.0 480.7 159.0 L 479.0 169.5 L 478.5 155.0 Q 478.5 155.0 476.2 152.1 Q 474.5 150.0 475.7 148.2 Q 476.5 147.0 474.2 145.2 Q 472.5 144.0 473.7 142.8 Q 474.5 142.0 472.7 141.4 Q 471.5 141.0 469.7 135.7 Q 468.5 132.0 464.7 129.4 Q 462.0 127.5 461.7 127.2 Z" data-area="577.8" data-index="26"/>
  <path d="M 497.5 449.0 L 505.5 458.0 Q 505.5 458.0 503.7 460.3 Q 502.5 462.0 506.9 464.6 Q 510.0 466.5 511.8 464.2 Q 513.0 462.5 515.3 463.1 L 530.0 448.5 L 527.5 457.0 Q 527.5 457.0 529.5 461.4 Q 531.0 464.5 531.9 461.9 Q 532.5 460.0 533.4 459.1 Q 534.0 458.5 534.3 460.0 Q 534.5 461.0 532.2 465.1 Q 530.5 468.0 519.7 477.6 L 501.0 488.5 L 507.5 484.0 Q 507.5 484.0 505.5 480.2 L 491.0 480.5 L 507.5 471.0 L 500.5 471.0 L 503.5 470.0 Q 503.5 470.0 504.1 466.5 Q 504.5 464.0 502.5 463.7 Q 501.0 463.5 501.3 461.5 Q 501.5 460.0 498.0 457.7 L 496.0 449.5 L 497.0 453.5 Q 497.0 453.5 499.0 453.2 Q 500.5 453.0 499.0 451.0 L 497.5 449.0 Z" data-area="570.3" data-index="27"/>
  <path d="M 642.3 423.2 Q 642.5 423.0 640.7 442.3 Q 639.5 456.0 641.8 457.2 L 644.0 429.5 L 646.5 460.0 L 636.0 467.5 L 644.5 461.0 Q 644.5 461.0 637.2 457.8 Q 632.0 455.5 630.5 459.9 Q 629.5 463.0 627.2 464.2 Q 625.5 465.0 627.8 466.2 Q 629.5 467.0 628.6 470.2 Q 628.0 472.5 621.9 469.9 Q 617.5 468.0 619.5 465.4 Q 621.0 463.5 623.3 464.1 Q 625.0 464.5 628.2 459.0 Q 630.5 455.0 624.4 452.4 L 622.0 462.5 L 618.5 449.0 Q 618.5 449.0 632.2 434.1 Q 642.0 423.5 642.3 423.2 Z" data-area="548.3" data-index="28"/>
  <path d="M 348.5 101.0 L 346.0 106.5 Q 346.0 106.5 341.6 108.5 Q 338.5 110.0 339.7 110.6 Q 340.5 111.0 338.2 112.2 Q 336.5 113.0 338.3 114.2 Q 339.5 115.0 337.7 116.8 Q 336.5 118.0 340.9 120.0 L 347.0 116.5 L 345.0 126.5 L 350.0 123.5 L 348.5 126.0 Q 348.5 126.0 351.1 126.3 L 359.5 120.0 L 351.5 144.0 Q 351.5 144.0 350.3 144.0 Q 349.5 144.0 349.8 138.5 Q 350.0 134.5 342.4 138.0 L 342.5 131.0 L 335.0 137.5 Q 335.0 137.5 333.2 129.9 Q 332.0 124.5 324.1 126.5 Q 318.5 128.0 324.6 119.5 Q 329.0 113.5 340.1 106.5 L 348.5 101.0 Z" data-area="545.0" data-index="29"/>
  <path d="M 336.3 78.2 Q 336.5 78.0 347.9 77.7 L 364.5 81.0 L 342.0 79.5 Q 342.0 79.5 335.0 81.8 Q 330.0 83.5 326.8 87.9 Q 324.5 91.0 327.7 90.1 Q 330.0 89.5 331.5 91.0 Q 332.5 92.0 329.0 94.9 Q 326.5 97.0 325.3 101.1 Q 324.5 104.0 330.9 105.2 Q 335.5 106.0 330.0 110.4 Q 326.0 113.5 322.5 114.1 Q 320.0 114.5 318.2 117.4 Q 317.0 119.5 316.7 117.5 Q 316.5 116.0 319.4 113.7 Q 321.5 112.0 319.7 110.8 Q 318.5 110.0 318.2 105.6 L 312.5 105.0 L 324.5 95.0 L 315.0 97.5 Q 315.0 97.5 316.8 92.8 Q 318.0 89.5 304.0 96.5 Q 294.0 101.5 288.2 100.9 L 277.5 95.0 L 283.0 98.5 Q 283.0 98.5 289.4 98.5 Q 294.0 98.5 312.1 88.6 Q 325.0 81.5 331.4 79.7 Q 336.0 78.5 336.3 78.2 Z" data-area="533.3" data-index="30"/>
  <path d="M 401.3 438.2 Q 401.5 438.0 409.4 438.9 Q 415.0 439.5 420.0 445.6 Q 423.5 450.0 424.1 458.2 Q 424.5 464.0 421.6 470.4 Q 419.5 475.0 415.1 478.2 Q 412.0 480.5 407.9 481.1 Q 405.0 481.5 398.3 478.3 L 395.0 470.5 L 393.0 475.5 Q 393.0 475.5 391.0 473.5 L 388.0 464.5 L 391.0 470.5 L 391.0 466.5 Q 391.0 466.5 393.9 468.3 L 397.0 466.5 L 396.5 474.0 Q 396.5 474.0 399.1 473.1 Q 401.0 472.5 403.0 474.0 Q 404.5 475.0 400.4 476.2 Q 397.5 477.0 401.9 478.5 Q 405.0 479.5 405.6 474.8 Q 406.0 471.5 411.0 473.0 Q 414.5 474.0 413.9 468.7 Q 413.5 465.0 412.6 465.9 L 408.0 460.5 L 411.5 470.0 L 409.0 466.5 Q 409.0 466.5 406.7 471.2 Q 405.0 474.5 403.0 473.0 Q 401.5 472.0 404.4 465.0 Q 406.5 460.0 415.3 458.2 Q 421.5 457.0 421.2 455.5 L 415.5 454.0 L 417.5 453.0 Q 417.5 453.0 416.3 451.2 Q 415.5 450.0 417.8 448.2 Q 419.5 447.0 414.0 442.6 Q 410.0 439.5 405.3 439.5 L 394.0 443.5 L 401.0 438.5 Q 401.0 438.5 401.3 438.2 Z" data-area="503.8" data-index="31"/>
  <path d="M 332.5 191.4 Q 332.5 191.0 334.5 192.5 L 349.0 192.5 L 338.0 194.5 L 357.0 199.5 Q 357.0 199.5 362.5 203.3 Q 366.5 206.0 365.6 211.5 Q 365.0 215.5 360.9 209.7 Q 358.0 205.5 355.7 211.3 Q 354.0 215.5 352.8 213.2 Q 352.0 211.5 348.5 212.7 Q 346.0 213.5 344.2 211.7 Q 343.0 210.5 341.5 210.8 L 341.0 215.5 L 337.5 209.0 Q 337.5 209.0 338.1 204.9 Q 338.5 202.0 336.5 201.7 Q 335.0 201.5 335.6 208.5 Q 336.0 213.5 330.5 207.4 Q 326.5 203.0 328.8 201.8 Q 330.5 201.0 327.0 197.5 Q 324.5 195.0 330.0 195.3 Q 334.0 195.5 333.1 193.5 Q 332.5 192.0 332.5 191.4 Z" data-area="497.5" data-index="32"/>
  <path d="M 641.5 519.4 Q 641.5 519.0 650.0 518.7 Q 656.0 518.5 655.1 521.1 Q 654.5 523.0 657.7 522.7 Q 660.0 522.5 661.5 526.9 Q 662.5 530.0 660.2 532.3 Q 658.5 534.0 658.8 527.9 Q 659.0 523.5 651.4 522.9 Q 646.0 522.5 645.1 524.0 L 643.5 529.0 L 646.0 524.5 L 646.5 532.0 Q 646.5 532.0 642.4 540.2 Q 639.5 546.0 641.5 545.7 Q 643.0 545.5 643.3 547.0 Q 643.5 548.0 641.2 548.0 Q 639.5 548.0 634.8 557.9 Q 631.5 565.0 637.0 571.1 Q 641.0 575.5 642.5 573.5 Q 643.5 572.0 642.3 571.4 L 646.5 568.0 L 643.5 569.0 Q 643.5 569.0 643.8 564.6 Q 644.0 561.5 641.7 563.8 Q 640.0 565.5 638.5 564.0 Q 637.5 563.0 639.8 560.7 L 640.0 557.5 L 652.5 565.0 Q 652.5 565.0 650.7 565.6 Q 649.5 566.0 650.1 567.8 Q 650.5 569.0 646.1 575.1 Q 643.0 579.5 639.8 579.2 Q 637.5 579.0 638.7 581.9 Q 639.5 584.0 638.0 585.5 Q 637.0 586.5 636.1 580.4 Q 635.5 576.0 629.7 566.7 Q 625.5 560.0 627.8 559.4 Q 629.5 559.0 628.3 558.4 Q 627.5 558.0 634.5 548.7 Q 639.5 542.0 638.3 540.8 Q 637.5 540.0 639.8 537.7 Q 641.5 536.0 640.3 536.0 Q 639.5 536.0 641.3 531.9 Q 642.5 529.0 641.9 523.7 Q 641.5 520.0 641.5 519.4 Z" data-area="487.0" data-index="33"/>
  <path d="M 218.3 795.2 Q 218.5 795.0 235.1 798.8 Q 247.0 801.5 246.1 810.0 Q 245.5 816.0 237.6 815.7 Q 232.0 815.5 222.7 812.6 Q 216.0 810.5 217.2 801.7 Q 218.0 795.5 218.3 795.2 Z" data-area="480.0" data-index="34"/>
  <path d="M 242.3 437.2 L 249.5 437.0 L 243.5 438.0 Q 243.5 438.0 245.5 440.6 Q 247.0 442.5 251.1 442.5 Q 254.0 442.5 252.0 439.9 Q 250.5 438.0 252.0 437.7 Q 253.0 437.5 257.4 442.5 Q 260.5 446.0 252.0 444.5 Q 246.0 443.5 241.3 445.8 Q 238.0 447.5 236.2 450.4 Q 235.0 452.5 233.2 451.9 Q 232.0 451.5 225.9 461.1 L 215.5 470.0 L 219.5 471.0 Q 219.5 471.0 218.6 473.6 Q 218.0 475.5 214.2 471.7 Q 211.5 469.0 213.8 462.0 Q 215.5 457.0 222.2 449.1 Q 227.0 443.5 235.8 440.0 Q 242.0 437.5 242.3 437.2 Z" data-area="462.8" data-index="35"/>
  <path d="M 462.3 556.2 Q 462.5 556.0 468.0 556.9 L 476.5 562.0 L 470.5 560.0 Q 470.5 560.0 474.0 564.7 Q 476.5 568.0 475.3 574.4 L 467.5 583.0 L 475.5 574.0 Q 475.5 574.0 474.9 569.3 L 470.0 561.5 L 471.5 565.0 Q 471.5 565.0 469.7 566.8 Q 468.5 568.0 470.8 569.2 Q 472.5 570.0 469.6 571.2 Q 467.5 572.0 467.2 575.2 Q 467.0 577.5 465.0 576.6 Q 463.5 576.0 464.1 580.1 Q 464.5 583.0 463.0 584.5 Q 462.0 585.5 458.2 584.6 Q 455.5 584.0 456.7 583.4 Q 457.5 583.0 453.4 577.7 Q 450.5 574.0 451.1 568.2 Q 451.5 564.0 457.6 559.6 Q 462.0 556.5 462.3 556.2 Z" data-area="441.3" data-index="36"/>
  <path d="M 241.3 450.2 Q 241.5 450.0 243.8 452.3 L 240.0 455.5 L 255.5 457.0 Q 255.5 457.0 256.1 466.9 Q 256.5 474.0 244.8 476.3 Q 236.5 478.0 235.3 464.6 Q 234.5 455.0 238.3 452.4 Q 241.0 450.5 241.3 450.2 Z" data-area="440.8" data-index="37"/>
  <path d="M 436.5 113.0 L 442.0 114.5 L 457.5 134.0 L 449.0 125.5 Q 449.0 125.5 448.7 132.8 Q 448.5 138.0 446.2 138.6 L 445.5 145.0 L 441.0 139.5 L 437.0 150.5 L 434.0 136.5 L 434.5 150.0 Q 434.5 150.0 431.3 146.8 L 425.0 156.5 L 419.5 130.0 L 427.0 138.5 Q 427.0 138.5 429.0 137.0 L 430.0 128.5 L 433.0 136.5 Q 433.0 136.5 433.6 134.7 Q 434.0 133.5 438.1 132.9 Q 441.0 132.5 439.0 128.1 Q 437.5 125.0 440.7 126.5 Q 443.0 127.5 443.3 123.7 Q 443.5 121.0 439.7 116.6 L 436.5 113.0 Z" data-area="436.3" data-index="38"/>
  <path d="M 498.5 370.4 L 504.5 375.0 L 501.5 374.0 Q 501.5 374.0 493.9 386.8 Q 488.5 396.0 487.0 394.5 Q 486.0 393.5 483.7 397.0 Q 482.0 399.5 471.2 402.7 L 464.0 401.5 L 465.0 404.5 Q 465.0 404.5 467.6 403.0 Q 469.5 402.0 466.6 400.8 Q 464.5 400.0 464.8 396.8 Q 465.0 394.5 476.7 388.1 Q 485.0 383.5 492.9 376.2 Q 498.5 371.0 498.5 370.4 Z" data-area="422.3" data-index="39"/>
  <path d="M 343.3 178.2 Q 343.5 178.0 352.0 178.3 Q 358.0 178.5 367.9 183.8 Q 375.0 187.5 377.6 194.2 Q 379.5 199.0 372.8 197.0 Q 368.0 195.5 369.2 197.8 Q 370.0 199.5 372.6 199.8 Q 374.5 200.0 373.6 203.2 Q 373.0 205.5 370.1 201.4 Q 368.0 198.5 367.1 199.4 L 369.0 207.5 L 356.5 196.0 Q 356.5 196.0 359.7 193.4 Q 362.0 191.5 351.5 185.1 L 334.5 180.0 L 343.0 178.5 Q 343.0 178.5 343.3 178.2 Z" data-area="416.8" data-index="40"/>
  <path d="M 233.3 755.2 Q 233.5 755.0 238.5 764.1 Q 242.0 770.5 251.3 764.7 Q 258.0 760.5 260.0 762.5 Q 261.5 764.0 251.0 771.0 Q 243.5 776.0 248.2 780.7 L 253.5 793.0 L 251.0 790.5 Q 251.0 790.5 251.3 792.5 Q 251.5 794.0 250.3 793.4 Q 249.5 793.0 244.8 785.4 L 243.0 777.5 L 227.0 787.5 Q 227.0 787.5 225.2 785.2 Q 224.0 783.5 223.4 785.3 Q 223.0 786.5 222.1 785.6 Q 221.5 785.0 230.6 778.3 Q 237.0 773.5 238.5 775.5 Q 239.5 777.0 239.5 774.1 Q 239.5 772.0 234.8 765.6 Q 231.5 761.0 230.9 758.7 Q 230.5 757.0 232.0 756.1 Q 233.0 755.5 233.3 755.2 Z" data-area="384.3" data-index="41"/>
  <path d="M 221.5 200.4 Q 221.5 200.0 224.1 202.0 Q 226.0 203.5 235.3 202.9 Q 242.0 202.5 249.0 204.3 Q 254.0 205.5 254.9 206.4 Q 255.5 207.0 251.1 210.8 Q 248.0 213.5 254.4 212.9 Q 259.0 212.5 268.6 214.5 Q 275.5 216.0 268.8 219.2 Q 264.0 221.5 255.8 220.3 Q 250.0 219.5 233.4 208.7 Q 221.5 201.0 221.5 200.4 Z" data-area="380.3" data-index="42"/>
  <path d="M 482.5 335.4 Q 482.5 335.0 487.2 338.5 Q 490.5 341.0 489.3 341.6 Q 488.5 342.0 490.0 343.5 Q 491.0 344.5 491.6 343.3 Q 492.0 342.5 500.5 348.6 Q 506.5 353.0 500.7 362.3 L 476.0 385.5 L 478.5 383.0 Q 478.5 383.0 475.0 377.7 Q 472.5 374.0 474.5 374.3 Q 476.0 374.5 475.7 373.0 L 493.0 354.5 L 491.5 360.0 Q 491.5 360.0 494.7 363.2 Q 497.0 365.5 500.8 359.4 Q 503.5 355.0 491.2 343.9 Q 482.5 336.0 482.5 335.4 Z" data-area="363.5" data-index="43"/>
  <path d="M 215.3 866.2 Q 215.5 866.0 214.9 873.0 Q 214.5 878.0 219.8 877.4 Q 223.5 877.0 220.6 882.3 Q 218.5 886.0 216.5 885.1 Q 215.0 884.5 213.8 888.0 Q 213.0 890.5 209.5 889.3 Q 207.0 888.5 202.9 889.7 Q 200.0 890.5 198.5 889.0 L 201.5 887.0 L 195.5 885.0 Q 195.5 885.0 198.1 878.9 Q 200.0 874.5 204.7 873.3 Q 208.0 872.5 212.1 869.0 Q 215.0 866.5 215.3 866.2 Z" data-area="341.5" data-index="44"/>
  <path d="M 305.3 327.2 L 308.5 328.0 L 305.5 328.0 Q 305.5 328.0 306.1 329.8 L 300.5 339.0 L 309.0 332.5 Q 309.0 332.5 308.7 335.1 Q 308.5 337.0 312.0 339.3 Q 314.5 341.0 312.2 342.2 Q 310.5 343.0 309.9 345.9 Q 309.5 348.0 311.0 348.3 Q 312.0 348.5 312.6 346.2 Q 313.0 344.5 313.9 345.4 Q 314.5 346.0 312.5 349.2 Q 311.0 351.5 308.1 350.9 Q 306.0 350.5 303.1 345.8 Q 301.0 342.5 300.7 344.5 Q 300.5 346.0 303.1 349.2 Q 305.0 351.5 309.7 352.1 Q 313.0 352.5 312.7 355.1 Q 312.5 357.0 305.8 356.1 Q 301.0 355.5 297.2 351.1 Q 294.5 348.0 295.7 348.0 Q 296.5 348.0 295.3 341.0 Q 294.5 336.0 300.6 331.0 Q 305.0 327.5 305.3 327.2 Z" data-area="336.5" data-index="45"/>
  <path d="M 339.5 282.0 L 351.0 284.5 Q 351.0 284.5 358.0 289.8 Q 363.0 293.5 364.8 292.9 Q 366.0 292.5 366.6 294.3 Q 367.0 295.5 376.3 299.6 Q 383.0 302.5 384.5 304.0 Q 385.5 305.0 383.5 305.9 L 370.0 300.5 L 376.5 310.0 Q 376.5 310.0 371.5 309.1 Q 368.0 308.5 351.6 293.3 L 339.5 282.0 Z" data-area="330.0" data-index="46"/>
  <path d="M 441.3 786.2 Q 441.5 786.0 444.4 786.6 Q 446.5 787.0 446.2 789.6 L 442.0 786.5 L 443.5 788.0 Q 443.5 788.0 439.1 789.5 Q 436.0 790.5 435.4 792.3 Q 435.0 793.5 423.6 795.5 Q 415.5 797.0 416.4 805.5 L 437.5 808.0 L 419.0 815.5 Q 419.0 815.5 414.6 814.0 Q 411.5 813.0 410.3 800.7 Q 409.5 792.0 427.9 788.8 Q 441.0 786.5 441.3 786.2 Z" data-area="324.5" data-index="47"/>
  <path d="M 388.5 616.4 Q 388.5 616.0 400.2 617.2 Q 408.5 618.0 407.9 631.4 Q 407.5 641.0 401.4 641.3 Q 397.0 641.5 390.6 640.3 Q 386.0 639.5 385.7 636.3 Q 385.5 634.0 394.6 635.5 Q 401.0 636.5 400.1 637.4 Q 399.5 638.0 401.5 639.5 Q 403.0 640.5 404.5 635.5 Q 405.5 632.0 404.3 631.4 L 403.0 636.5 L 402.5 630.0 Q 402.5 630.0 404.3 628.8 Q 405.5 628.0 404.0 624.8 Q 403.0 622.5 397.7 621.9 Q 394.0 621.5 393.1 623.5 Q 392.5 625.0 395.4 626.2 Q 397.5 627.0 397.5 629.3 Q 397.5 631.0 392.0 630.1 Q 388.0 629.5 388.3 622.2 Q 388.5 617.0 388.5 616.4 Z" data-area="319.3" data-index="48"/>
  <path d="M 267.3 467.2 Q 267.5 467.0 272.8 469.3 Q 276.5 471.0 266.6 480.3 L 254.5 502.0 L 254.0 494.5 Q 254.0 494.5 251.7 493.3 L 247.5 496.0 L 249.5 487.0 Q 249.5 487.0 253.0 481.2 Q 255.5 477.0 262.2 471.5 Q 267.0 467.5 267.3 467.2 Z" data-area="313.8" data-index="49"/>
  <path d="M 443.3 317.2 Q 443.5 317.0 447.9 316.7 Q 451.0 316.5 454.8 320.3 Q 457.5 323.0 456.0 324.5 Q 455.0 325.5 454.1 322.3 Q 453.5 320.0 451.7 320.6 Q 450.5 321.0 454.0 324.5 Q 456.5 327.0 453.6 328.2 L 453.0 335.5 L 451.0 330.5 Q 451.0 330.5 449.0 332.5 Q 447.5 334.0 453.0 335.5 Q 457.0 336.5 458.2 329.5 Q 459.0 324.5 460.5 327.1 Q 461.5 329.0 460.9 334.3 Q 460.5 338.0 458.7 339.2 Q 457.5 340.0 458.4 337.4 Q 459.0 335.5 454.9 338.4 Q 452.0 340.5 445.3 335.5 Q 440.5 332.0 439.9 326.2 Q 439.5 322.0 441.5 319.4 Q 443.0 317.5 443.3 317.2 Z" data-area="292.0" data-index="50"/>
  <path d="M 193.5 862.0 L 191.5 870.0 Q 191.5 870.0 193.0 869.1 Q 194.0 868.5 196.0 872.9 Q 197.5 876.0 194.3 879.8 Q 192.0 882.5 188.8 882.8 Q 186.5 883.0 186.8 885.0 Q 187.0 886.5 189.3 884.7 Q 191.0 883.5 190.7 885.0 Q 190.5 886.0 185.0 886.3 Q 181.0 886.5 178.4 881.5 Q 176.5 878.0 179.4 876.8 Q 181.5 876.0 181.2 872.8 Q 181.0 870.5 188.0 865.8 L 193.5 862.0 Z" data-area="269.0" data-index="51"/>
  <path d="M 555.3 564.2 Q 555.5 564.0 561.3 568.7 L 566.5 589.0 L 566.0 585.5 Q 566.0 585.5 561.9 585.5 Q 559.0 585.5 556.7 589.0 Q 555.0 591.5 554.1 590.6 Q 553.5 590.0 554.7 585.3 Q 555.5 582.0 551.4 575.0 Q 548.5 570.0 552.3 566.8 Q 555.0 564.5 555.3 564.2 Z" data-area="262.5" data-index="52"/>
  <path d="M 218.5 250.0 L 209.5 268.0 Q 209.5 268.0 208.3 277.3 Q 207.5 284.0 202.8 280.5 Q 199.5 278.0 199.5 272.2 Q 199.5 268.0 203.3 262.5 Q 206.0 258.5 213.0 253.8 L 218.5 250.0 Z" data-area="240.8" data-index="53"/>
  <path d="M 567.7 592.2 Q 567.5 592.0 578.3 593.5 Q 586.0 594.5 588.0 597.7 Q 589.5 600.0 586.3 600.9 Q 584.0 601.5 581.1 606.2 Q 579.0 609.5 576.1 609.5 Q 574.0 609.5 569.6 606.3 Q 566.5 604.0 569.4 601.1 Q 571.5 599.0 569.5 595.2 Q 568.0 592.5 567.7 592.2 Z" data-area="238.0" data-index="54"/>
  <path d="M 555.5 513.4 Q 555.5 513.0 563.1 515.3 Q 568.5 517.0 566.7 525.2 Q 565.5 531.0 560.5 531.9 Q 557.0 532.5 557.9 531.6 Q 558.5 531.0 555.9 531.3 L 553.0 528.5 L 552.5 532.0 L 556.5 533.0 L 551.0 534.5 Q 551.0 534.5 553.6 522.5 Q 555.5 514.0 555.5 513.4 Z" data-area="231.5" data-index="55"/>
  <path d="M 488.3 220.2 Q 488.5 220.0 499.0 220.6 Q 506.5 221.0 496.9 227.1 Q 490.0 231.5 480.7 233.3 Q 474.0 234.5 472.0 233.0 Q 470.5 232.0 474.3 229.4 Q 477.0 227.5 482.3 228.7 Q 486.0 229.5 483.4 226.3 Q 481.5 224.0 485.3 222.0 Q 488.0 220.5 488.3 220.2 Z" data-area="224.3" data-index="56"/>
  <path d="M 441.5 856.0 L 450.0 862.5 Q 450.0 862.5 457.0 863.7 Q 462.0 864.5 463.5 866.5 Q 464.5 868.0 463.3 868.6 L 467.5 873.0 L 465.0 870.5 Q 465.0 870.5 463.2 874.6 Q 462.0 877.5 460.8 876.3 L 456.0 877.5 L 457.5 875.0 Q 457.5 875.0 456.0 874.7 Q 455.0 874.5 453.0 876.0 Q 451.5 877.0 453.3 877.6 Q 454.5 878.0 453.0 879.5 Q 452.0 880.5 448.5 879.9 Q 446.0 879.5 445.7 876.9 Q 445.5 875.0 447.8 875.0 L 447.5 867.0 L 449.0 869.5 Q 449.0 869.5 451.0 866.9 Q 452.5 865.0 449.3 864.7 Q 447.0 864.5 444.1 859.8 L 441.5 856.0 Z" data-area="224.0" data-index="57"/>
  <path d="M 414.3 758.2 Q 414.5 758.0 421.2 763.5 L 433.5 760.0 L 429.5 765.0 Q 429.5 765.0 431.8 765.6 Q 433.5 766.0 429.7 771.0 L 423.5 772.0 L 425.5 777.0 Q 425.5 777.0 419.7 784.0 Q 415.5 789.0 413.2 786.1 Q 411.5 784.0 418.5 776.4 Q 423.5 771.0 416.5 765.2 Q 411.5 761.0 413.0 759.5 Q 414.0 758.5 414.3 758.2 Z" data-area="211.8" data-index="58"/>
  <path d="M 484.5 269.4 Q 484.5 269.0 489.2 271.9 Q 492.5 274.0 496.0 279.8 Q 498.5 284.0 497.3 290.4 Q 496.5 295.0 492.1 298.2 Q 489.0 300.5 489.3 290.3 Q 489.5 283.0 486.6 275.4 Q 484.5 270.0 484.5 269.4 Z" data-area="202.8" data-index="59"/>
  <path d="M 463.3 605.2 L 467.0 619.5 L 467.5 608.0 Q 467.5 608.0 469.3 608.0 Q 470.5 608.0 471.7 620.8 Q 472.5 630.0 470.2 629.4 Q 468.5 629.0 469.7 627.2 L 468.0 620.5 L 466.5 635.0 Q 466.5 635.0 465.6 635.9 Q 465.0 636.5 463.8 634.2 L 461.5 635.0 L 463.0 605.5 Q 463.0 605.5 463.3 605.2 Z" data-area="191.3" data-index="60"/>
  <path d="M 541.3 643.2 Q 541.5 643.0 543.3 644.2 Q 544.5 645.0 532.2 670.1 Q 523.5 688.0 522.3 687.4 Q 521.5 687.0 522.1 689.3 Q 522.5 691.0 520.2 695.7 Q 518.5 699.0 516.2 699.0 Q 514.5 699.0 519.8 691.4 Q 523.5 686.0 524.1 681.3 Q 524.5 678.0 534.1 657.9 Q 541.0 643.5 541.3 643.2 Z" data-area="188.0" data-index="61"/>
  <path d="M 344.5 303.0 L 371.0 314.5 Q 371.0 314.5 370.1 316.5 Q 369.5 318.0 371.5 320.0 Q 373.0 321.5 365.4 320.3 Q 360.0 319.5 359.4 317.7 Q 359.0 316.5 357.8 317.7 Q 357.0 318.5 350.0 309.7 L 344.5 303.0 Z" data-area="176.5" data-index="62"/>
  <path d="M 509.5 390.0 L 506.5 397.0 L 482.0 417.5 L 484.5 413.0 Q 484.5 413.0 482.2 411.8 Q 480.5 411.0 486.3 406.9 Q 490.5 404.0 488.2 402.2 Q 486.5 401.0 487.4 400.1 L 491.0 403.5 L 490.0 398.5 Q 490.0 398.5 492.3 400.3 Q 494.0 401.5 499.8 395.1 Q 504.0 390.5 504.6 394.0 Q 505.0 396.5 507.3 393.0 L 509.5 390.0 Z" data-area="176.5" data-index="63"/>
  <path d="M 561.5 606.4 Q 561.5 606.0 563.5 606.9 L 565.0 605.5 L 567.0 609.5 Q 567.0 609.5 573.1 612.1 Q 577.5 614.0 570.8 619.5 L 553.5 611.0 L 559.0 614.5 Q 559.0 614.5 560.5 610.1 Q 561.5 607.0 561.5 606.4 Z" data-area="172.3" data-index="64"/>
  <path d="M 365.5 121.0 L 367.0 132.5 Q 367.0 132.5 371.7 127.8 Q 375.0 124.5 376.5 125.4 Q 377.5 126.0 375.2 127.8 Q 373.5 129.0 374.7 129.6 Q 375.5 130.0 371.1 139.6 Q 368.0 146.5 367.1 142.7 Q 366.5 140.0 364.2 138.2 L 362.0 146.5 L 361.5 134.0 Q 361.5 134.0 363.8 127.0 L 365.5 121.0 Z" data-area="154.5" data-index="65"/>
  <path d="M 336.3 342.2 Q 336.5 342.0 340.0 342.0 Q 342.5 342.0 342.5 343.8 L 338.5 346.0 L 344.5 347.0 Q 344.5 347.0 343.3 349.9 L 337.5 354.0 L 344.0 354.5 Q 344.0 354.5 344.3 356.0 Q 344.5 357.0 338.7 358.2 Q 334.5 359.0 333.3 353.2 Q 332.5 349.0 334.8 347.8 L 328.5 345.0 L 336.0 342.5 Q 336.0 342.5 336.3 342.2 Z" data-area="149.3" data-index="66"/>
  <path d="M 376.3 237.2 Q 376.5 237.0 378.8 238.2 L 378.0 240.5 L 383.0 239.5 L 385.0 244.5 L 384.0 241.5 Q 384.0 241.5 392.2 242.7 Q 398.0 243.5 399.8 241.2 Q 401.0 239.5 401.3 241.5 Q 401.5 243.0 393.6 248.0 Q 388.0 251.5 385.7 248.0 Q 384.0 245.5 380.2 244.0 Q 377.5 243.0 376.6 239.8 Q 376.0 237.5 376.3 237.2 Z" data-area="127.5" data-index="67"/>
  <path d="M 366.5 616.4 Q 366.5 616.0 372.9 617.2 Q 377.5 618.0 376.3 625.6 Q 375.5 631.0 373.5 631.3 Q 372.0 631.5 364.7 628.3 Q 359.5 626.0 362.1 624.5 Q 364.0 623.5 368.1 624.7 L 372.5 629.0 L 371.5 621.0 Q 371.5 621.0 370.0 618.4 Q 369.0 616.5 367.8 618.3 Q 367.0 619.5 366.7 618.0 Q 366.5 617.0 366.5 616.4 Z" data-area="124.0" data-index="68"/>
  <path d="M 256.5 658.0 L 258.5 661.0 Q 258.5 661.0 257.3 667.4 Q 256.5 672.0 248.9 680.8 L 233.5 708.0 L 237.5 693.0 Q 237.5 693.0 248.0 677.8 Q 255.5 667.0 256.1 662.3 L 256.5 658.0 Z" data-area="117.5" data-index="69"/>
  <path d="M 553.5 618.0 L 568.5 627.0 Q 568.5 627.0 564.1 630.2 Q 561.0 632.5 555.7 630.7 Q 552.0 629.5 551.1 628.6 Q 550.5 628.0 554.0 625.1 Q 556.5 623.0 555.0 620.4 L 553.5 618.0 Z" data-area="115.8" data-index="70"/>
  <path d="M 329.3 433.2 Q 329.5 433.0 342.6 432.7 Q 352.0 432.5 349.4 438.6 Q 347.5 443.0 346.0 439.8 L 342.5 445.0 L 344.0 434.5 L 342.0 437.5 Q 342.0 437.5 333.8 436.3 Q 328.0 435.5 328.6 434.3 Q 329.0 433.5 329.3 433.2 Z" data-area="109.0" data-index="71"/>
  <path d="M 611.5 482.4 Q 611.5 482.0 617.3 484.3 Q 621.5 486.0 619.2 486.6 Q 617.5 487.0 617.2 492.5 L 611.5 495.0 L 617.5 498.0 Q 617.5 498.0 615.5 499.5 Q 614.0 500.5 609.0 498.5 Q 605.5 497.0 605.8 495.5 Q 606.0 494.5 609.2 494.2 Q 611.5 494.0 612.7 489.3 Q 613.5 486.0 612.3 484.2 Q 611.5 483.0 611.5 482.4 Z" data-area="109.0" data-index="72"/>
  <path d="M 409.5 291.0 L 411.0 294.5 Q 411.0 294.5 412.8 292.7 Q 414.0 291.5 414.9 293.5 Q 415.5 295.0 414.3 300.3 Q 413.5 304.0 410.0 306.3 L 411.0 296.5 L 402.0 304.5 Q 402.0 304.5 400.5 303.6 Q 399.5 303.0 405.3 296.6 L 409.5 291.0 Z" data-area="108.0" data-index="73"/>
  <path d="M 357.5 604.0 L 360.0 609.5 Q 360.0 609.5 362.3 606.6 Q 364.0 604.5 368.4 606.5 Q 371.5 608.0 366.2 609.2 Q 362.5 610.0 361.3 617.6 Q 360.5 623.0 359.6 622.1 Q 359.0 621.5 357.5 624.1 L 359.5 627.0 L 356.0 627.5 Q 356.0 627.5 356.9 614.4 L 357.5 604.0 Z" data-area="106.5" data-index="74"/>
  <path d="M 429.3 619.2 Q 429.5 619.0 431.5 618.7 Q 433.0 618.5 433.9 621.1 Q 434.5 623.0 431.0 623.6 Q 428.5 624.0 430.8 626.9 Q 432.5 629.0 431.9 630.8 Q 431.5 632.0 426.8 632.0 Q 423.5 632.0 423.5 625.0 Q 423.5 620.0 426.7 619.7 Q 429.0 619.5 429.3 619.2 Z" data-area="106.5" data-index="75"/>
  <path d="M 234.5 258.0 L 230.5 277.0 L 227.0 267.5 Q 227.0 267.5 223.2 269.5 Q 220.5 271.0 221.1 265.7 Q 221.5 262.0 225.9 262.9 Q 229.0 263.5 231.9 260.6 L 234.5 258.0 Z" data-area="101.8" data-index="76"/>
  <path d="M 199.3 834.2 L 208.5 834.0 L 205.0 834.5 Q 205.0 834.5 201.5 839.2 Q 199.0 842.5 192.6 843.7 Q 188.0 844.5 190.3 839.8 Q 192.0 836.5 196.1 835.3 Q 199.0 834.5 199.3 834.2 Z" data-area="95.8" data-index="77"/>
  <path d="M 228.5 245.0 L 213.5 278.0 Q 213.5 278.0 212.3 276.8 Q 211.5 276.0 212.7 270.7 Q 213.5 267.0 222.0 254.4 L 228.5 245.0 Z" data-area="95.3" data-index="78"/>
  <path d="M 464.3 783.2 L 467.5 783.0 L 464.5 784.0 Q 464.5 784.0 465.7 787.5 Q 466.5 790.0 468.5 789.7 Q 470.0 789.5 474.4 793.9 Q 477.5 797.0 475.5 796.7 Q 474.0 796.5 472.2 800.0 Q 471.0 802.5 469.2 801.9 Q 468.0 801.5 463.6 796.5 L 462.0 787.5 L 462.5 795.0 Q 462.5 795.0 465.4 797.3 Q 467.5 799.0 468.1 796.1 Q 468.5 794.0 465.0 789.3 Q 462.5 786.0 463.4 784.5 Q 464.0 783.5 464.3 783.2 Z" data-area="95.3" data-index="79"/>
  <path d="M 309.5 363.0 L 311.0 366.5 Q 311.0 366.5 314.2 365.6 L 311.0 387.5 L 312.5 381.0 Q 312.5 381.0 310.5 379.0 Q 309.0 377.5 307.5 379.0 Q 306.5 380.0 308.3 370.7 L 309.5 363.0 Z" data-area="92.5" data-index="80"/>
  <path d="M 233.3 221.2 Q 233.5 221.0 234.7 221.0 Q 235.5 221.0 234.3 223.3 Q 233.5 225.0 221.2 236.7 Q 212.5 245.0 213.1 246.8 Q 213.5 248.0 211.5 248.9 Q 210.0 249.5 210.0 247.2 L 198.0 258.5 L 201.5 251.0 Q 201.5 251.0 217.6 237.9 Q 229.0 228.5 231.3 224.4 Q 233.0 221.5 233.3 221.2 Z" data-area="91.8" data-index="81"/>
  <path d="M 254.3 181.2 Q 254.5 181.0 259.5 180.7 Q 263.0 180.5 262.1 184.3 Q 261.5 187.0 259.5 188.5 Q 258.0 189.5 253.9 188.3 Q 251.0 187.5 249.5 186.0 Q 248.5 185.0 251.7 183.0 Q 254.0 181.5 254.3 181.2 Z" data-area="84.8" data-index="82"/>
  <path d="M 298.5 358.0 L 296.5 377.0 L 287.5 383.0 L 293.5 372.0 Q 293.5 372.0 293.5 365.6 Q 293.5 361.0 296.1 361.9 Q 298.0 362.5 298.3 360.5 L 298.5 358.0 Z" data-area="81.8" data-index="83"/>
  <path d="M 609.3 470.2 Q 609.5 470.0 616.2 471.5 L 630.5 480.0 L 624.0 477.5 Q 624.0 477.5 622.8 478.7 L 620.0 476.5 L 620.0 482.5 Q 620.0 482.5 616.2 480.5 Q 613.5 479.0 615.8 476.7 Q 617.5 475.0 613.1 472.4 L 607.5 476.0 L 609.0 470.5 Q 609.0 470.5 609.3 470.2 Z" data-area="81.8" data-index="84"/>
  <path d="M 298.5 269.4 Q 298.5 269.0 300.5 269.3 Q 302.0 269.5 301.1 270.4 Q 300.5 271.0 304.6 274.5 Q 307.5 277.0 303.4 278.2 Q 300.5 279.0 302.0 281.0 Q 303.0 282.5 298.9 283.1 Q 296.0 283.5 294.5 282.0 Q 293.5 281.0 295.3 280.4 Q 296.5 280.0 295.9 276.5 Q 295.5 274.0 299.6 274.0 Q 302.5 274.0 300.2 271.7 Q 298.5 270.0 298.5 269.4 Z" data-area="81.3" data-index="85"/>
  <path d="M 502.5 578.0 L 506.5 586.0 Q 506.5 586.0 505.3 587.8 Q 504.5 589.0 506.3 589.0 Q 507.5 589.0 510.4 597.2 Q 512.5 603.0 510.5 602.1 Q 509.0 601.5 508.4 603.8 Q 508.0 605.5 507.1 604.0 Q 506.5 603.0 507.7 601.2 Q 508.5 600.0 506.2 597.1 Q 504.5 595.0 503.3 585.7 L 502.5 578.0 Z" data-area="78.8" data-index="86"/>
  <path d="M 557.3 488.2 Q 557.5 488.0 559.8 489.2 Q 561.5 490.0 559.2 495.8 Q 557.5 500.0 556.0 499.1 L 553.0 501.5 L 553.0 497.5 L 551.0 500.5 Q 551.0 500.5 549.5 499.6 Q 548.5 499.0 553.5 492.9 Q 557.0 488.5 557.3 488.2 Z" data-area="78.5" data-index="87"/>
  <path d="M 427.3 195.2 Q 427.5 195.0 429.3 195.0 Q 430.5 195.0 429.3 199.7 Q 428.5 203.0 420.9 203.0 Q 415.5 203.0 416.4 201.0 Q 417.0 199.5 422.8 197.2 Q 427.0 195.5 427.3 195.2 Z" data-area="77.5" data-index="88"/>
  <path d="M 403.3 321.2 Q 403.5 321.0 405.8 323.9 Q 407.5 326.0 407.5 330.1 Q 407.5 333.0 405.2 332.4 Q 403.5 332.0 403.2 327.6 Q 403.0 324.5 401.0 326.0 Q 399.5 327.0 401.8 328.8 Q 403.5 330.0 402.0 331.5 Q 401.0 332.5 400.4 330.7 L 394.5 332.0 L 398.5 328.0 Q 398.5 328.0 398.5 325.1 Q 398.5 323.0 401.1 322.1 Q 403.0 321.5 403.3 321.2 Z" data-area="73.8" data-index="89"/>
  <path d="M 504.5 438.0 L 512.5 444.0 Q 512.5 444.0 511.3 446.9 L 513.5 453.0 L 510.0 449.5 Q 510.0 449.5 509.4 451.8 Q 509.0 453.5 506.1 451.7 Q 504.0 450.5 503.1 449.0 Q 502.5 448.0 504.8 446.2 Q 506.5 445.0 505.6 441.2 L 504.5 438.0 Z" data-area="72.5" data-index="90"/>
  <path d="M 465.5 858.0 L 474.0 862.5 Q 474.0 862.5 476.3 861.3 Q 478.0 860.5 478.3 863.1 Q 478.5 865.0 475.9 867.0 Q 474.0 868.5 471.1 867.3 L 469.0 870.5 L 466.0 858.5 L 465.5 858.0 Z" data-area="71.0" data-index="91"/>
  <path d="M 399.3 80.2 Q 399.5 80.0 408.6 80.9 L 448.5 110.0 L 414.0 83.5 Q 414.0 83.5 405.2 81.7 Q 399.0 80.5 399.3 80.2 Z" data-area="68.5" data-index="92"/>
  <path d="M 599.3 530.2 Q 599.5 530.0 600.7 531.2 Q 601.5 532.0 600.0 535.8 Q 599.0 538.5 591.7 540.0 L 591.0 546.5 L 583.5 537.0 Q 583.5 537.0 587.3 537.9 Q 590.0 538.5 595.3 533.8 Q 599.0 530.5 599.3 530.2 Z" data-area="68.3" data-index="93"/>
  <path d="M 373.3 56.2 L 379.5 57.0 L 367.0 59.5 L 359.0 70.5 L 359.5 62.0 Q 359.5 62.0 362.7 59.4 Q 365.0 57.5 369.7 56.9 Q 373.0 56.5 373.3 56.2 Z" data-area="63.3" data-index="94"/>
  <path d="M 156.5 691.0 L 153.0 696.5 Q 153.0 696.5 151.0 696.2 L 151.0 700.5 L 148.0 696.5 Q 148.0 696.5 147.1 697.4 Q 146.5 698.0 146.8 700.6 L 153.5 704.0 L 139.5 707.0 Q 139.5 707.0 145.0 699.7 Q 149.0 694.5 153.1 692.7 L 156.5 691.0 Z" data-area="61.0" data-index="95"/>
  <path d="M 311.5 299.4 Q 311.5 299.0 315.6 300.8 Q 318.5 302.0 316.2 303.8 Q 314.5 305.0 316.8 306.8 Q 318.5 308.0 313.5 310.0 Q 310.0 311.5 309.1 310.0 Q 308.5 309.0 310.8 308.4 Q 312.5 308.0 310.2 306.8 Q 308.5 306.0 309.1 304.2 Q 309.5 303.0 312.4 303.6 Q 314.5 304.0 312.7 301.7 Q 311.5 300.0 311.5 299.4 Z" data-area="60.8" data-index="96"/>
  <path d="M 338.3 371.2 Q 338.5 371.0 341.7 374.8 Q 344.0 377.5 345.8 373.4 Q 347.0 370.5 348.5 373.7 Q 349.5 376.0 345.1 378.0 Q 342.0 379.5 341.4 381.8 Q 341.0 383.5 338.4 378.0 Q 336.5 374.0 337.4 372.5 Q 338.0 371.5 338.3 371.2 Z" data-area="60.8" data-index="97"/>
  <path d="M 290.5 244.0 L 294.5 246.0 Q 294.5 246.0 294.5 248.3 Q 294.5 250.0 291.3 249.7 Q 289.0 249.5 289.9 251.5 Q 290.5 253.0 288.5 254.5 L 281.5 248.0 L 285.0 250.5 Q 285.0 250.5 286.2 247.0 L 293.0 248.5 L 291.0 244.5 L 290.5 244.0 Z" data-area="60.0" data-index="98"/>
  <path d="M 565.3 552.2 Q 565.5 552.0 570.2 552.0 Q 573.5 552.0 571.2 557.3 Q 569.5 561.0 566.0 558.1 Q 563.5 556.0 562.9 554.2 Q 562.5 553.0 564.0 552.7 Q 565.0 552.5 565.3 552.2 Z" data-area="57.5" data-index="99"/>
  <path d="M 325.3 291.2 Q 325.5 291.0 329.9 290.7 Q 333.0 290.5 333.9 292.5 Q 334.5 294.0 331.3 296.0 Q 329.0 297.5 327.2 294.6 Q 326.0 292.5 325.4 296.6 Q 325.0 299.5 323.5 298.0 Q 322.5 297.0 324.0 293.8 Q 325.0 291.5 325.3 291.2 Z" data-area="53.0" data-index="100"/>
  <path d="M 644.3 546.2 Q 644.5 546.0 647.7 545.7 Q 650.0 545.5 650.6 547.3 Q 651.0 548.5 652.2 547.3 Q 653.0 546.5 655.0 549.1 Q 656.5 551.0 652.1 551.9 L 647.0 548.5 L 647.0 550.5 Q 647.0 550.5 645.0 549.6 Q 643.5 549.0 643.8 547.5 Q 644.0 546.5 644.3 546.2 Z" data-area="52.0" data-index="101"/>
  <path d="M 226.7 800.2 L 243.0 802.5 L 237.0 803.5 Q 237.0 803.5 234.7 807.6 Q 233.0 810.5 231.5 809.6 Q 230.5 809.0 231.1 804.9 Q 231.5 802.0 228.9 801.1 Q 227.0 800.5 226.7 800.2 Z" data-area="50.0" data-index="102"/>
  <path d="M 243.3 308.2 L 249.5 308.0 L 244.0 310.5 Q 244.0 310.5 244.6 311.7 Q 245.0 312.5 240.9 312.5 Q 238.0 312.5 235.4 314.5 L 233.5 330.0 L 231.5 318.0 Q 231.5 318.0 233.5 314.8 Q 235.0 312.5 239.7 310.2 Q 243.0 308.5 243.3 308.2 Z" data-area="49.5" data-index="103"/>
  <path d="M 239.5 460.4 Q 239.5 460.0 246.2 459.7 L 251.0 467.5 L 250.0 461.5 Q 250.0 461.5 245.3 461.5 Q 242.0 461.5 241.1 463.0 Q 240.5 464.0 241.4 467.8 L 252.5 470.0 L 240.0 472.5 Q 240.0 472.5 239.7 465.8 Q 239.5 461.0 239.5 460.4 Z" data-area="49.0" data-index="104"/>
  <path d="M 458.3 596.2 Q 458.5 596.0 464.6 595.7 Q 469.0 595.5 469.3 598.1 Q 469.5 600.0 466.3 600.9 Q 464.0 601.5 461.1 598.6 L 458.0 600.5 L 458.0 596.5 Q 458.0 596.5 458.3 596.2 Z" data-area="45.3" data-index="105"/>
  <path d="M 235.5 847.4 Q 235.5 847.0 239.6 849.3 Q 242.5 851.0 238.7 852.5 Q 236.0 853.5 235.4 855.8 Q 235.0 857.5 233.0 854.9 Q 231.5 853.0 233.8 850.1 Q 235.5 848.0 235.5 847.4 Z" data-area="43.5" data-index="106"/>
  <path d="M 627.5 582.0 L 629.5 588.0 Q 629.5 588.0 626.9 591.2 L 623.5 588.0 L 623.5 599.0 L 621.5 590.0 L 622.0 584.5 L 623.0 587.5 Q 623.0 587.5 624.8 586.3 L 628.5 588.0 L 627.5 583.0 L 627.5 582.0 Z" data-area="43.0" data-index="107"/>
  <path d="M 265.3 590.2 Q 265.5 590.0 267.8 592.3 Q 269.5 594.0 268.3 596.9 Q 267.5 599.0 265.2 599.6 L 264.5 592.0 L 263.0 594.5 Q 263.0 594.5 262.1 593.0 Q 261.5 592.0 263.5 591.1 Q 265.0 590.5 265.3 590.2 Z" data-area="42.3" data-index="108"/>
  <path d="M 523.5 438.4 Q 523.5 438.0 528.2 439.8 Q 531.5 441.0 534.4 447.4 L 535.0 457.5 L 530.5 442.0 Q 530.5 442.0 526.4 440.2 Q 523.5 439.0 523.5 438.4 Z" data-area="41.0" data-index="109"/>
  <path d="M 405.3 164.2 Q 405.5 164.0 406.7 164.6 Q 407.5 165.0 403.1 166.5 Q 400.0 167.5 400.3 169.5 Q 400.5 171.0 397.9 173.6 Q 396.0 175.5 396.3 170.0 Q 396.5 166.0 401.5 165.1 Q 405.0 164.5 405.3 164.2 Z" data-area="40.8" data-index="110"/>
  <path d="M 526.5 458.0 L 530.5 465.0 Q 530.5 465.0 527.6 467.9 Q 525.5 470.0 524.3 467.1 Q 523.5 465.0 525.3 461.5 L 526.5 458.0 Z" data-area="40.5" data-index="111"/>
  <path d="M 408.5 858.0 L 410.0 864.5 Q 410.0 864.5 411.2 862.2 Q 412.0 860.5 414.0 862.0 Q 415.5 863.0 414.9 865.3 L 417.5 871.0 L 407.5 864.0 Q 407.5 864.0 408.1 861.1 L 408.5 858.0 Z" data-area="38.5" data-index="112"/>
  <path d="M 488.5 796.0 L 486.5 803.0 Q 486.5 803.0 483.9 804.5 Q 482.0 805.5 480.5 805.2 Q 479.5 805.0 482.4 802.1 L 478.5 798.0 L 488.5 797.0 L 488.5 796.0 Z" data-area="37.8" data-index="113"/>
  <path d="M 558.5 519.4 Q 558.5 519.0 561.4 519.6 Q 563.5 520.0 562.0 524.4 Q 561.0 527.5 558.4 527.2 Q 556.5 527.0 557.7 522.9 Q 558.5 520.0 558.5 519.4 Z" data-area="37.5" data-index="114"/>
  <path d="M 576.3 576.2 Q 576.5 576.0 577.7 577.8 Q 578.5 579.0 575.6 584.8 Q 573.5 589.0 572.3 586.7 Q 571.5 585.0 574.1 580.0 Q 576.0 576.5 576.3 576.2 Z" data-area="37.5" data-index="115"/>
  <path d="M 249.5 161.0 L 252.0 167.5 Q 252.0 167.5 257.5 169.5 Q 261.5 171.0 256.0 172.5 Q 252.0 173.5 250.5 166.8 L 249.5 161.0 Z" data-area="37.3" data-index="116"/>
  <path d="M 477.5 471.0 L 478.5 478.0 Q 478.5 478.0 484.0 484.1 L 496.5 489.0 L 487.0 489.5 Q 487.0 489.5 486.4 487.7 Q 486.0 486.5 484.8 487.7 Q 484.0 488.5 480.8 484.1 Q 478.5 481.0 479.7 480.4 Q 480.5 480.0 478.2 478.8 Q 476.5 478.0 477.1 474.5 L 477.5 471.0 Z" data-area="37.3" data-index="117"/>
  <path d="M 210.5 471.0 L 211.5 484.0 Q 211.5 484.0 215.0 486.3 Q 217.5 488.0 218.7 491.5 Q 219.5 494.0 214.8 491.1 Q 211.5 489.0 210.9 479.1 L 210.5 471.0 Z" data-area="37.0" data-index="118"/>
  <path d="M 528.5 155.0 L 530.5 161.0 Q 530.5 161.0 529.9 163.9 Q 529.5 166.0 527.7 166.6 Q 526.5 167.0 526.5 160.6 Q 526.5 156.0 527.7 156.0 L 528.5 155.0 Z" data-area="35.0" data-index="119"/>
  <path d="M 407.7 95.2 Q 407.5 95.0 413.6 95.9 Q 418.0 96.5 420.0 100.9 Q 421.5 104.0 420.0 104.9 Q 419.0 105.5 416.7 100.8 Q 415.0 97.5 410.9 96.3 Q 408.0 95.5 407.7 95.2 Z" data-area="34.8" data-index="120"/>
  <path d="M 315.5 151.0 L 315.0 154.5 L 320.5 152.0 L 313.0 158.5 Q 313.0 158.5 309.2 157.0 Q 306.5 156.0 306.8 154.0 Q 307.0 152.5 309.9 154.3 Q 312.0 155.5 314.0 153.5 L 315.5 151.0 Z" data-area="34.8" data-index="121"/>
  <path d="M 354.5 438.4 L 381.5 440.0 L 367.0 440.5 Q 367.0 440.5 364.7 442.3 Q 363.0 443.5 362.4 441.2 Q 362.0 439.5 357.6 439.2 Q 354.5 439.0 354.5 438.4 Z" data-area="34.5" data-index="122"/>
  <path d="M 379.7 254.2 Q 379.5 254.0 388.6 254.9 L 397.0 253.5 L 393.0 257.5 Q 393.0 257.5 384.8 256.9 Q 379.0 256.5 379.6 255.3 Q 380.0 254.5 379.7 254.2 Z" data-area="34.0" data-index="123"/>
  <path d="M 463.7 315.2 Q 463.5 315.0 465.0 314.7 Q 466.0 314.5 471.0 320.0 Q 474.5 324.0 473.6 325.5 Q 473.0 326.5 467.7 320.1 Q 464.0 315.5 463.7 315.2 Z" data-area="34.0" data-index="124"/>
  <path d="M 361.3 453.2 Q 361.5 453.0 365.6 454.8 Q 368.5 456.0 367.6 458.0 Q 367.0 459.5 363.2 458.6 Q 360.5 458.0 362.0 460.0 L 366.5 461.0 L 360.5 461.0 Q 360.5 461.0 360.8 456.6 Q 361.0 453.5 361.3 453.2 Z" data-area="34.0" data-index="125"/>
  <path d="M 278.5 300.0 L 286.0 301.5 L 292.0 311.5 L 279.0 300.5 L 278.5 300.0 Z" data-area="33.5" data-index="126"/>
  <path d="M 505.3 522.2 Q 505.5 522.0 507.0 524.0 L 516.5 525.0 L 506.5 527.0 Q 506.5 527.0 511.2 531.7 Q 514.5 535.0 511.0 534.4 Q 508.5 534.0 506.5 527.3 Q 505.0 522.5 505.3 522.2 Z" data-area="32.8" data-index="127"/>
  <path d="M 458.3 607.2 L 458.5 630.0 L 457.5 624.0 Q 457.5 624.0 456.3 624.6 Q 455.5 625.0 457.0 614.8 Q 458.0 607.5 458.3 607.2 Z" data-area="31.8" data-index="128"/>
  <path d="M 227.5 655.4 Q 227.5 655.0 223.7 660.5 L 205.5 674.0 L 227.5 656.0 Q 227.5 656.0 227.5 655.4 Z" data-area="31.8" data-index="129"/>
  <path d="M 243.5 179.0 L 225.0 191.5 L 211.5 193.0 L 225.0 189.5 Q 225.0 189.5 235.5 183.7 L 243.5 179.0 Z" data-area="30.0" data-index="130"/>
  <path d="M 430.3 796.2 L 433.5 796.0 L 427.5 798.0 Q 427.5 798.0 429.3 800.3 Q 430.5 802.0 429.0 804.0 Q 428.0 805.5 426.2 801.4 L 417.5 799.0 L 430.0 796.5 Q 430.0 796.5 430.3 796.2 Z" data-area="30.0" data-index="131"/>
  <path d="M 578.5 564.0 L 587.0 567.5 Q 587.0 567.5 584.1 569.3 Q 582.0 570.5 580.0 569.0 Q 578.5 568.0 578.8 566.0 L 578.5 564.0 Z" data-area="27.5" data-index="132"/>
  <path d="M 584.3 517.2 L 583.5 536.0 L 581.5 523.0 Q 581.5 523.0 583.0 519.8 Q 584.0 517.5 584.3 517.2 Z" data-area="26.3" data-index="133"/>
  <path d="M 665.3 553.2 Q 665.5 553.0 668.4 553.0 Q 670.5 553.0 669.6 555.0 L 666.5 555.0 L 668.5 558.0 Q 668.5 558.0 665.0 558.0 Q 662.5 558.0 664.0 555.4 Q 665.0 553.5 665.3 553.2 Z" data-area="25.5" data-index="134"/>
  <path d="M 470.5 872.4 Q 470.5 872.0 474.3 872.9 Q 477.0 873.5 477.9 875.5 Q 478.5 877.0 475.9 877.3 Q 474.0 877.5 472.0 874.9 Q 470.5 873.0 470.5 872.4 Z" data-area="25.3" data-index="135"/>
  <path d="M 503.5 411.0 L 508.5 424.0 L 523.5 444.0 L 506.5 423.0 Q 506.5 423.0 504.7 416.6 L 503.5 411.0 Z" data-area="24.5" data-index="136"/>
  <path d="M 140.5 689.4 Q 140.5 689.0 144.0 689.0 Q 146.5 689.0 146.5 691.9 Q 146.5 694.0 145.0 693.1 L 138.0 698.5 L 142.5 693.0 Q 142.5 693.0 141.3 691.2 Q 140.5 690.0 140.5 689.4 Z" data-area="24.3" data-index="137"/>
  <path d="M 569.5 493.0 L 571.5 496.0 Q 571.5 496.0 569.5 498.0 Q 568.0 499.5 566.2 497.2 L 563.5 497.0 L 564.0 494.5 Q 564.0 494.5 567.2 494.2 L 569.5 493.0 Z" data-area="23.8" data-index="138"/>
  <path d="M 349.3 159.2 Q 349.5 159.0 356.2 159.9 Q 361.0 160.5 361.9 162.5 Q 362.5 164.0 354.6 161.4 Q 349.0 159.5 349.3 159.2 Z" data-area="23.5" data-index="139"/>
  <path d="M 462.5 590.4 Q 462.5 590.0 466.0 590.0 Q 468.5 590.0 468.2 592.6 Q 468.0 594.5 465.7 594.5 Q 464.0 594.5 463.1 592.5 Q 462.5 591.0 462.5 590.4 Z" data-area="23.3" data-index="140"/>
  <path d="M 390.3 75.2 L 401.5 77.0 L 388.0 76.5 L 381.0 79.5 L 384.0 75.5 Q 384.0 75.5 387.5 75.5 Q 390.0 75.5 390.3 75.2 Z" data-area="23.0" data-index="141"/>
  <path d="M 392.5 392.0 L 393.5 407.0 Q 393.5 407.0 395.3 408.2 Q 396.5 409.0 393.6 409.6 Q 391.5 410.0 392.1 400.1 L 392.5 392.0 Z" data-area="22.5" data-index="142"/>
  <path d="M 461.3 548.2 Q 461.5 548.0 462.1 550.9 L 465.5 553.0 L 461.0 554.5 Q 461.0 554.5 459.2 551.6 Q 458.0 549.5 457.4 551.8 Q 457.0 553.5 456.1 551.5 Q 455.5 550.0 458.7 549.1 Q 461.0 548.5 461.3 548.2 Z" data-area="22.5" data-index="143"/>
  <path d="M 457.5 572.0 L 463.5 574.0 Q 463.5 574.0 461.7 576.9 Q 460.5 579.0 461.7 580.2 Q 462.5 581.0 461.0 581.3 Q 460.0 581.5 458.5 579.5 Q 457.5 578.0 459.8 575.7 Q 461.5 574.0 459.5 573.1 L 457.5 572.0 Z" data-area="22.5" data-index="144"/>
  <path d="M 229.5 591.0 L 227.5 600.0 L 230.5 603.0 L 223.5 597.0 Q 223.5 597.0 226.7 593.8 L 229.5 591.0 Z" data-area="22.5" data-index="145"/>
  <path d="M 502.7 377.2 Q 502.5 377.0 504.0 376.7 Q 505.0 376.5 509.4 380.9 Q 512.5 384.0 511.6 386.6 Q 511.0 388.5 509.5 384.1 Q 508.5 381.0 505.3 379.0 Q 503.0 377.5 502.7 377.2 Z" data-area="22.0" data-index="146"/>
  <path d="M 208.5 304.0 L 207.5 308.0 Q 207.5 308.0 203.7 310.6 Q 201.0 312.5 200.7 311.0 Q 200.5 310.0 204.9 306.8 L 208.5 304.0 Z" data-area="21.8" data-index="147"/>
  <path d="M 328.3 324.2 Q 328.5 324.0 330.3 326.3 Q 331.5 328.0 328.3 328.3 Q 326.0 328.5 327.5 330.0 Q 328.5 331.0 326.5 331.9 Q 325.0 332.5 324.1 330.5 Q 323.5 329.0 326.1 328.1 Q 328.0 327.5 328.0 325.7 Q 328.0 324.5 328.3 324.2 Z" data-area="21.0" data-index="148"/>
  <path d="M 417.5 459.0 L 420.5 460.0 Q 420.5 460.0 418.5 465.0 Q 417.0 468.5 416.1 465.9 Q 415.5 464.0 417.0 461.4 L 417.5 459.0 Z" data-area="21.0" data-index="149"/>
  <path d="M 271.7 466.2 Q 271.5 466.0 275.9 465.7 Q 279.0 465.5 281.9 467.3 Q 284.0 468.5 281.7 469.7 Q 280.0 470.5 278.2 468.2 Q 277.0 466.5 274.1 466.5 Q 272.0 466.5 271.7 466.2 Z" data-area="21.0" data-index="150"/>
  <path d="M 245.3 870.2 Q 245.5 870.0 246.1 874.7 Q 246.5 878.0 244.7 879.2 L 241.5 872.0 L 244.0 876.5 Q 244.0 876.5 244.6 873.0 Q 245.0 870.5 245.3 870.2 Z" data-area="20.8" data-index="151"/>
  <path d="M 454.5 664.0 L 451.5 677.0 Q 451.5 677.0 450.6 677.9 Q 450.0 678.5 449.7 676.5 Q 449.5 675.0 452.1 668.9 L 454.5 664.0 Z" data-area="20.5" data-index="152"/>
  <path d="M 539.5 533.0 L 541.5 544.0 L 538.5 548.0 L 539.5 534.0 L 539.5 533.0 Z" data-area="20.0" data-index="153"/>
  <path d="M 258.5 700.0 L 264.5 706.0 Q 264.5 706.0 260.7 706.3 Q 258.0 706.5 258.6 703.0 L 258.5 700.0 Z" data-area="19.3" data-index="154"/>
  <path d="M 476.3 375.2 Q 476.5 375.0 480.0 377.9 Q 482.5 380.0 480.5 381.5 Q 479.0 382.5 477.2 378.4 Q 476.0 375.5 476.3 375.2 Z" data-area="18.8" data-index="155"/>
  <path d="M 143.3 667.2 L 162.5 668.0 L 151.0 668.5 Q 151.0 668.5 149.8 670.3 Q 149.0 671.5 147.5 670.0 L 149.0 667.5 L 143.0 667.5 Q 143.0 667.5 143.3 667.2 Z" data-area="18.8" data-index="156"/>
  <path d="M 261.5 406.0 L 265.0 411.5 L 269.5 407.0 L 266.0 415.5 Q 266.0 415.5 263.4 410.5 L 261.5 406.0 Z" data-area="17.8" data-index="157"/>
  <path d="M 330.3 449.2 Q 330.5 449.0 332.8 452.5 Q 334.5 455.0 329.8 453.2 Q 326.5 452.0 328.5 450.5 Q 330.0 449.5 330.3 449.2 Z" data-area="17.8" data-index="158"/>
  <path d="M 574.3 495.2 Q 574.5 495.0 576.3 495.6 Q 577.5 496.0 574.6 498.9 L 575.5 502.0 L 570.5 501.0 Q 570.5 501.0 572.5 497.8 Q 574.0 495.5 574.3 495.2 Z" data-area="17.5" data-index="159"/>
  <path d="M 342.3 318.2 Q 342.5 318.0 342.5 320.3 Q 342.5 322.0 338.4 322.6 Q 335.5 323.0 337.0 320.4 Q 338.0 318.5 339.2 320.3 Q 340.0 321.5 341.2 319.7 Q 342.0 318.5 342.3 318.2 Z" data-area="16.5" data-index="160"/>
</g>
</svg>
