<?xml version="1.0" encoding="UTF-8"?>
<svg xmlns="http://www.w3.org/2000/svg" viewBox="0 0 1144 1375" role="img" aria-labelledby="boonkTitle boonkDesc">
  <title id="boonkTitle">Official Boonk Star sophisticated vector redesign</title>
  <desc id="boonkDesc">A cleaner, sophisticated angular cartoon vector redesign of Boonk, the minotaur girl mascot.</desc>
  <defs>
    <filter id="stickerShadow" x="-12%" y="-10%" width="124%" height="124%">
      <feDropShadow dx="0" dy="14" stdDeviation="12" flood-color="#150d08" flood-opacity=".24"/>
    </filter>
    <linearGradient id="hornGold" x1="0" x2="1" y1="0" y2="1">
      <stop offset="0" stop-color="#fff1c4"/>
      <stop offset=".45" stop-color="#d9983e"/>
      <stop offset="1" stop-color="#8b481f"/>
    </linearGradient>
    <linearGradient id="steel" x1="0" x2="1" y1="0" y2="1">
      <stop offset="0" stop-color="#f5f0e6"/>
      <stop offset=".5" stop-color="#8d8377"/>
      <stop offset="1" stop-color="#363231"/>
    </linearGradient>
  </defs>

  <g id="boonk-redesign-v2" filter="url(#stickerShadow)">
    <path id="sticker" d="M562 48 C452 58 370 116 320 205 C240 195 166 238 145 315 C128 377 152 430 202 466 C154 536 166 618 224 664 C178 744 204 836 280 872 C280 1018 356 1186 500 1268 C616 1334 764 1290 822 1158 C852 1090 858 1018 846 952 C930 920 976 848 956 762 C1034 716 1066 624 1025 548 C1092 482 1094 372 1026 305 C976 256 908 242 844 260 C810 150 700 52 562 48 Z" fill="#fff" stroke="#fff" stroke-width="50" stroke-linejoin="round"/>
    <path id="outline" d="M562 48 C452 58 370 116 320 205 C240 195 166 238 145 315 C128 377 152 430 202 466 C154 536 166 618 224 664 C178 744 204 836 280 872 C280 1018 356 1186 500 1268 C616 1334 764 1290 822 1158 C852 1090 858 1018 846 952 C930 920 976 848 956 762 C1034 716 1066 624 1025 548 C1092 482 1094 372 1026 305 C976 256 908 242 844 260 C810 150 700 52 562 48 Z" fill="none" stroke="#1f1712" stroke-width="7" stroke-linejoin="round" opacity=".35"/>

    <g id="tail">
      <path d="M316 896 C210 924 150 1016 176 1110 C204 1210 340 1180 374 1076 C396 1008 374 932 316 896 Z" fill="#4b2817"/>
      <path d="M176 1110 C206 1032 248 972 316 896 C254 920 184 994 176 1110 Z" fill="#1f1712" opacity=".78"/>
      <path d="M256 1156 C310 1136 354 1088 374 1076 C346 1152 292 1184 256 1156 Z" fill="#a75324"/>
    </g>

    <g id="axe">
      <path d="M810 520 L852 508 L782 1198 L739 1211 Z" fill="#5a321f"/>
      <path d="M836 526 L852 508 L782 1198 L766 1204 Z" fill="#e4aa55"/>
      <path d="M765 526 C856 484 956 430 1051 358 C1032 480 977 596 872 661 C828 642 793 598 765 526 Z" fill="url(#steel)" stroke="#2b2521" stroke-width="7" stroke-linejoin="round"/>
      <path d="M872 661 C968 631 1026 534 1051 358 C989 428 908 484 824 524 Z" fill="#5f5954" opacity=".78"/>
      <path d="M812 552 L974 474 L930 588 L842 620 Z" fill="#ece4d6" opacity=".7"/>
      <circle cx="872" cy="586" r="55" fill="#d88825" stroke="#5b321c" stroke-width="10"/>
      <path d="M872 545 L908 586 L872 627 L836 586 Z" fill="#ffdfa0"/>
    </g>

    <g id="legs">
      <path d="M430 856 L546 856 L522 1178 L392 1166 Z" fill="#7d421f"/>
      <path d="M604 856 L726 856 L752 1166 L620 1180 Z" fill="#6b371d"/>
      <path d="M420 1005 L532 1005 L522 1071 L402 1068 Z" fill="#d58a33"/>
      <path d="M612 1005 L732 1005 L746 1068 L624 1072 Z" fill="#d58a33"/>
      <path d="M388 1160 C436 1148 488 1154 530 1193 C506 1250 404 1260 344 1223 C352 1196 366 1174 388 1160 Z" fill="#3a2217"/>
      <path d="M620 1194 C666 1154 720 1148 766 1162 C792 1180 808 1202 816 1228 C758 1260 654 1250 620 1194 Z" fill="#3a2217"/>
      <path d="M378 1210 L520 1195 C486 1238 408 1244 378 1210 Z" fill="#a95525"/>
      <path d="M632 1195 L782 1212 C748 1246 666 1238 632 1195 Z" fill="#a95525"/>
    </g>

    <g id="body">
      <path d="M374 560 C430 514 504 494 578 498 C672 502 746 536 800 594 L764 940 C680 990 464 988 380 940 Z" fill="#17384a"/>
      <path d="M374 560 C430 514 504 494 578 498 L536 968 C466 962 414 952 380 940 Z" fill="#21647a"/>
      <path d="M578 498 C672 502 746 536 800 594 L764 940 C698 972 626 980 536 968 Z" fill="#102835"/>
      <path d="M482 566 L666 566 L632 800 L510 800 Z" fill="#f0d39a"/>
      <path d="M510 800 L632 800 L612 936 L532 936 Z" fill="#c9772b"/>
      <path d="M380 940 C480 980 682 980 764 940 L746 1018 C654 1066 480 1064 394 1018 Z" fill="#4a2a19"/>
      <path d="M496 548 L572 646 L648 548 L622 704 L522 704 Z" fill="#ffe2a8"/>
      <circle cx="572" cy="870" r="60" fill="#e59a2d" stroke="#5a2f19" stroke-width="10"/>
      <path d="M572 824 L606 870 L572 916 L538 870 Z" fill="#ffdf91"/>
      <path d="M440 600 L500 648 L454 812 L376 772 Z" fill="#122937" opacity=".65"/>
      <path d="M704 600 L648 648 L690 812 L768 770 Z" fill="#244f63" opacity=".72"/>
    </g>

    <g id="arms">
      <path d="M374 594 C306 666 270 750 282 842 C306 872 352 878 394 850 C402 742 426 666 470 618 Z" fill="#a95425"/>
      <path d="M282 842 C292 914 338 946 392 922 C416 900 418 870 394 850 C352 878 306 872 282 842 Z" fill="#66351f"/>
      <path d="M782 594 C848 668 878 752 864 842 C838 874 792 878 750 850 C744 742 720 666 674 618 Z" fill="#93491f"/>
      <path d="M750 850 C734 910 764 944 820 936 C852 918 872 884 864 842 C838 874 792 878 750 850 Z" fill="#5a2f1e"/>
      <path d="M272 780 L358 862 L304 888 Z" fill="#f07a12" opacity=".65"/>
      <path d="M846 784 L776 870 L878 848 Z" fill="#f07a12" opacity=".6"/>
    </g>

    <g id="neck-scarf">
      <path d="M486 464 L656 464 L694 552 L448 552 Z" fill="#8d431f"/>
      <path d="M382 498 C486 536 636 538 760 498 L720 610 C620 668 500 668 420 610 Z" fill="#bf3424"/>
      <path d="M382 498 C482 540 560 556 572 628 C488 620 440 578 420 610 Z" fill="#f07a12"/>
      <path d="M572 628 C626 556 702 534 760 498 L720 610 C672 586 632 620 572 628 Z" fill="#7b241e"/>
      <circle cx="572" cy="530" r="45" fill="#e89b2c" stroke="#5a2f19" stroke-width="8"/>
      <path d="M572 500 L600 530 L572 560 L544 530 Z" fill="#ffe2a8"/>
    </g>

    <g id="horns">
      <path d="M396 122 C294 120 210 168 176 254 C146 330 176 398 244 438 C278 346 348 270 450 210 Z" fill="url(#hornGold)" stroke="#2b1b12" stroke-width="8"/>
      <path d="M748 122 C850 120 934 168 968 254 C998 330 968 398 900 438 C866 346 796 270 694 210 Z" fill="url(#hornGold)" stroke="#2b1b12" stroke-width="8"/>
      <path d="M176 254 C226 288 292 290 356 254 L450 210 C342 244 270 312 244 438 C176 398 146 330 176 254 Z" fill="#9f5524" opacity=".45"/>
      <path d="M968 254 C918 288 852 290 788 254 L694 210 C802 244 874 312 900 438 C968 398 998 330 968 254 Z" fill="#9f5524" opacity=".45"/>
      <path d="M254 218 L338 156 L428 206 L330 262 Z" fill="#fff1c4" opacity=".55"/>
      <path d="M890 218 L806 156 L716 206 L814 262 Z" fill="#fff1c4" opacity=".55"/>
    </g>

    <g id="hair-back">
      <path d="M344 254 C382 146 486 92 584 112 C704 126 790 210 806 344 C820 478 758 610 666 690 C636 584 594 492 572 408 C542 536 488 628 404 696 C316 594 296 410 344 254 Z" fill="#2a1a13"/>
      <path d="M584 112 C506 184 482 310 496 460 C430 394 382 324 344 254 C382 146 486 92 584 112 Z" fill="#6b351c"/>
      <path d="M584 112 C682 148 756 232 806 344 C736 320 672 286 632 238 Z" fill="#4a2a18"/>
      <path d="M404 696 C472 626 532 520 572 408 C580 552 620 634 666 690 C588 740 482 748 404 696 Z" fill="#3a2115"/>
      <path d="M448 232 C502 182 612 166 686 210 L632 238 C570 212 508 218 448 232 Z" fill="#a95425" opacity=".72"/>
    </g>

    <g id="ears">
      <path d="M336 330 L218 386 L322 476 L452 394 Z" fill="#9f4f24" stroke="#2b1b12" stroke-width="7" stroke-linejoin="round"/>
      <path d="M218 386 L328 410 L322 476 Z" fill="#f07a12"/>
      <path d="M808 330 L926 386 L822 476 L692 394 Z" fill="#9f4f24" stroke="#2b1b12" stroke-width="7" stroke-linejoin="round"/>
      <path d="M926 386 L816 410 L822 476 Z" fill="#f07a12"/>
    </g>

    <g id="face">
      <path d="M444 238 C500 190 640 190 700 238 C756 306 760 420 710 510 C646 604 504 604 434 510 C382 424 386 306 444 238 Z" fill="#c8652a" stroke="#2b1b12" stroke-width="7"/>
      <path d="M444 238 C500 190 572 190 572 190 L542 598 C492 586 458 560 434 510 C382 424 386 306 444 238 Z" fill="#f07a12"/>
      <path d="M572 190 C632 192 678 210 700 238 C756 306 760 420 710 510 C668 576 616 596 542 598 Z" fill="#d46b2b"/>
      <path d="M434 510 C474 538 522 550 572 550 C626 550 672 538 710 510 C652 604 504 604 434 510 Z" fill="#f6bd63" opacity=".34"/>
      <path d="M486 354 C522 326 560 334 588 360 C550 386 516 388 486 354 Z" fill="#fff2c7"/>
      <path d="M658 354 C622 326 584 334 556 360 C594 386 628 388 658 354 Z" fill="#fff2c7"/>
      <path d="M500 358 C526 344 554 348 578 360 C548 374 520 374 500 358 Z" fill="#173142"/>
      <path d="M644 358 C618 344 590 348 566 360 C596 374 624 374 644 358 Z" fill="#173142"/>
      <path d="M470 326 C514 298 558 300 592 330" fill="none" stroke="#24150f" stroke-width="12" stroke-linecap="round"/>
      <path d="M674 326 C630 298 586 300 552 330" fill="none" stroke="#24150f" stroke-width="12" stroke-linecap="round"/>
      <path d="M548 422 L598 422 L622 474 L574 496 L526 474 Z" fill="#8a3f18"/>
      <path d="M554 430 L596 430 L574 456 Z" fill="#f2a14a"/>
      <path d="M520 530 C552 558 596 558 628 530" fill="none" stroke="#24150f" stroke-width="9" stroke-linecap="round"/>
      <path d="M516 152 L628 152 L650 238 L494 238 Z" fill="#d88b25" stroke="#4a2a18" stroke-width="7" stroke-linejoin="round"/>
      <path d="M572 166 L626 218 L572 270 L518 218 Z" fill="#fff0a8"/>
      <path d="M572 184 L604 218 L572 250 L540 218 Z" fill="#f07a12"/>
      <path d="M452 240 C500 210 646 210 704 240 C662 170 496 170 452 240 Z" fill="#2a1a13" opacity=".7"/>
    </g>
  </g>
</svg>
